<mxfile host="65bd71144e">
    <diagram id="axC5triYnuk_ygRYECBl" name="Component">
        <mxGraphModel dx="5900" dy="3280" grid="1" gridSize="10" guides="0" tooltips="1" connect="1" arrows="1" fold="1" page="1" pageScale="1" pageWidth="1600" pageHeight="900" math="0" shadow="0">
            <root>
                <mxCell id="0"/>
                <mxCell id="1" parent="0"/>
                <mxCell id="u_0tqq7yVstuYAS3RZ9H-7" value="" style="group" vertex="1" connectable="0" parent="1">
                    <mxGeometry x="30" y="20" width="820" height="90" as="geometry"/>
                </mxCell>
                <mxCell id="u_0tqq7yVstuYAS3RZ9H-1" value="" style="rounded=1;whiteSpace=wrap;html=1;sketch=1;hachureGap=4;jiggle=2;curveFitting=1;fontFamily=Architects Daughter;fontSource=https%3A%2F%2Ffonts.googleapis.com%2Fcss%3Ffamily%3DArchitects%2BDaughter;fontSize=20;" vertex="1" parent="u_0tqq7yVstuYAS3RZ9H-7">
                    <mxGeometry width="820" height="90" as="geometry"/>
                </mxCell>
                <mxCell id="u_0tqq7yVstuYAS3RZ9H-2" value="Search....." style="rounded=1;whiteSpace=wrap;html=1;sketch=1;hachureGap=4;jiggle=2;curveFitting=1;fontFamily=Architects Daughter;fontSource=https%3A%2F%2Ffonts.googleapis.com%2Fcss%3Ffamily%3DArchitects%2BDaughter;fontSize=20;" vertex="1" parent="u_0tqq7yVstuYAS3RZ9H-7">
                    <mxGeometry x="20" y="15" width="300" height="60" as="geometry"/>
                </mxCell>
                <mxCell id="u_0tqq7yVstuYAS3RZ9H-3" value="Ở đâu" style="text;html=1;strokeColor=none;fillColor=none;align=center;verticalAlign=middle;whiteSpace=wrap;rounded=0;sketch=1;hachureGap=4;jiggle=2;curveFitting=1;fontFamily=Architects Daughter;fontSource=https%3A%2F%2Ffonts.googleapis.com%2Fcss%3Ffamily%3DArchitects%2BDaughter;fontSize=20;" vertex="1" parent="u_0tqq7yVstuYAS3RZ9H-7">
                    <mxGeometry x="340" y="30" width="60" height="30" as="geometry"/>
                </mxCell>
                <mxCell id="u_0tqq7yVstuYAS3RZ9H-5" value="Search khu vực" style="rounded=1;whiteSpace=wrap;html=1;sketch=1;hachureGap=4;jiggle=2;curveFitting=1;fontFamily=Architects Daughter;fontSource=https%3A%2F%2Ffonts.googleapis.com%2Fcss%3Ffamily%3DArchitects%2BDaughter;fontSize=20;" vertex="1" parent="u_0tqq7yVstuYAS3RZ9H-7">
                    <mxGeometry x="420" y="15" width="300" height="60" as="geometry"/>
                </mxCell>
                <mxCell id="u_0tqq7yVstuYAS3RZ9H-6" value="" style="sketch=0;html=1;aspect=fixed;strokeColor=none;shadow=0;align=center;verticalAlign=top;fillColor=#3B8DF1;shape=mxgraph.gcp2.search;hachureGap=4;jiggle=2;curveFitting=1;fontFamily=Architects Daughter;fontSource=https%3A%2F%2Ffonts.googleapis.com%2Fcss%3Ffamily%3DArchitects%2BDaughter;fontSize=20;" vertex="1" parent="u_0tqq7yVstuYAS3RZ9H-7">
                    <mxGeometry x="750" y="23.75" width="42.08" height="42.5" as="geometry"/>
                </mxCell>
                <mxCell id="ZrH9pnGEFzG8MoaLTAYE-3" value="" style="group" vertex="1" connectable="0" parent="1">
                    <mxGeometry x="40" y="150" width="240" height="96" as="geometry"/>
                </mxCell>
                <mxCell id="ZrH9pnGEFzG8MoaLTAYE-1" value="" style="verticalLabelPosition=bottom;shadow=0;dashed=0;align=center;html=1;verticalAlign=top;strokeWidth=1;shape=mxgraph.mockup.graphics.simpleIcon;strokeColor=#999999;sketch=1;hachureGap=4;jiggle=2;curveFitting=1;fontFamily=Architects Daughter;fontSource=https%3A%2F%2Ffonts.googleapis.com%2Fcss%3Ffamily%3DArchitects%2BDaughter;fontSize=20;" vertex="1" parent="ZrH9pnGEFzG8MoaLTAYE-3">
                    <mxGeometry width="240" height="96" as="geometry"/>
                </mxCell>
                <mxCell id="ZrH9pnGEFzG8MoaLTAYE-2" value="Image" style="text;html=1;strokeColor=none;fillColor=none;align=center;verticalAlign=middle;whiteSpace=wrap;rounded=0;sketch=1;hachureGap=4;jiggle=2;curveFitting=1;fontFamily=Architects Daughter;fontSource=https%3A%2F%2Ffonts.googleapis.com%2Fcss%3Ffamily%3DArchitects%2BDaughter;fontSize=20;" vertex="1" parent="ZrH9pnGEFzG8MoaLTAYE-3">
                    <mxGeometry x="65" y="33" width="110" height="30" as="geometry"/>
                </mxCell>
                <mxCell id="IXASZPI2pUbs_n1lAMg7-5" value="" style="group" vertex="1" connectable="0" parent="1">
                    <mxGeometry x="40" y="280" width="430" height="40" as="geometry"/>
                </mxCell>
                <mxCell id="w3Blx5Z6s3btD30MpgH--1" value="A" style="ellipse;whiteSpace=wrap;html=1;sketch=1;hachureGap=4;jiggle=2;curveFitting=1;fontFamily=Architects Daughter;fontSource=https%3A%2F%2Ffonts.googleapis.com%2Fcss%3Ffamily%3DArchitects%2BDaughter;fontSize=20;" vertex="1" parent="IXASZPI2pUbs_n1lAMg7-5">
                    <mxGeometry width="40" height="40" as="geometry"/>
                </mxCell>
                <mxCell id="w3Blx5Z6s3btD30MpgH--2" value="B" style="ellipse;whiteSpace=wrap;html=1;sketch=1;hachureGap=4;jiggle=2;curveFitting=1;fontFamily=Architects Daughter;fontSource=https%3A%2F%2Ffonts.googleapis.com%2Fcss%3Ffamily%3DArchitects%2BDaughter;fontSize=20;" vertex="1" parent="IXASZPI2pUbs_n1lAMg7-5">
                    <mxGeometry x="50" width="40" height="40" as="geometry"/>
                </mxCell>
                <mxCell id="w3Blx5Z6s3btD30MpgH--3" value="C" style="ellipse;whiteSpace=wrap;html=1;sketch=1;hachureGap=4;jiggle=2;curveFitting=1;fontFamily=Architects Daughter;fontSource=https%3A%2F%2Ffonts.googleapis.com%2Fcss%3Ffamily%3DArchitects%2BDaughter;fontSize=20;" vertex="1" parent="IXASZPI2pUbs_n1lAMg7-5">
                    <mxGeometry x="100" width="40" height="40" as="geometry"/>
                </mxCell>
                <mxCell id="w3Blx5Z6s3btD30MpgH--4" value="" style="ellipse;whiteSpace=wrap;html=1;sketch=1;hachureGap=4;jiggle=2;curveFitting=1;fontFamily=Architects Daughter;fontSource=https%3A%2F%2Ffonts.googleapis.com%2Fcss%3Ffamily%3DArchitects%2BDaughter;fontSize=20;" vertex="1" parent="IXASZPI2pUbs_n1lAMg7-5">
                    <mxGeometry x="160" y="10" width="20" height="20" as="geometry"/>
                </mxCell>
                <mxCell id="IXASZPI2pUbs_n1lAMg7-1" value="" style="ellipse;whiteSpace=wrap;html=1;sketch=1;hachureGap=4;jiggle=2;curveFitting=1;fontFamily=Architects Daughter;fontSource=https%3A%2F%2Ffonts.googleapis.com%2Fcss%3Ffamily%3DArchitects%2BDaughter;fontSize=20;" vertex="1" parent="IXASZPI2pUbs_n1lAMg7-5">
                    <mxGeometry x="200" y="10" width="20" height="20" as="geometry"/>
                </mxCell>
                <mxCell id="IXASZPI2pUbs_n1lAMg7-2" value="" style="ellipse;whiteSpace=wrap;html=1;sketch=1;hachureGap=4;jiggle=2;curveFitting=1;fontFamily=Architects Daughter;fontSource=https%3A%2F%2Ffonts.googleapis.com%2Fcss%3Ffamily%3DArchitects%2BDaughter;fontSize=20;" vertex="1" parent="IXASZPI2pUbs_n1lAMg7-5">
                    <mxGeometry x="250" y="10" width="20" height="20" as="geometry"/>
                </mxCell>
                <mxCell id="IXASZPI2pUbs_n1lAMg7-3" value="Z" style="ellipse;whiteSpace=wrap;html=1;sketch=1;hachureGap=4;jiggle=2;curveFitting=1;fontFamily=Architects Daughter;fontSource=https%3A%2F%2Ffonts.googleapis.com%2Fcss%3Ffamily%3DArchitects%2BDaughter;fontSize=20;" vertex="1" parent="IXASZPI2pUbs_n1lAMg7-5">
                    <mxGeometry x="290" width="40" height="40" as="geometry"/>
                </mxCell>
                <mxCell id="IXASZPI2pUbs_n1lAMg7-4" value="Tất cả" style="text;html=1;strokeColor=none;fillColor=none;align=center;verticalAlign=middle;whiteSpace=wrap;rounded=0;sketch=1;hachureGap=4;jiggle=2;curveFitting=1;fontFamily=Architects Daughter;fontSource=https%3A%2F%2Ffonts.googleapis.com%2Fcss%3Ffamily%3DArchitects%2BDaughter;fontSize=20;" vertex="1" parent="IXASZPI2pUbs_n1lAMg7-5">
                    <mxGeometry x="340" y="5" width="90" height="30" as="geometry"/>
                </mxCell>
                <mxCell id="hCGjYZj7xdYVqwGix5T1-9" value="" style="group" vertex="1" connectable="0" parent="1">
                    <mxGeometry x="40" y="354" width="300" height="196" as="geometry"/>
                </mxCell>
                <mxCell id="hCGjYZj7xdYVqwGix5T1-2" value="" style="rounded=1;whiteSpace=wrap;html=1;sketch=1;hachureGap=4;jiggle=2;curveFitting=1;fontFamily=Architects Daughter;fontSource=https%3A%2F%2Ffonts.googleapis.com%2Fcss%3Ffamily%3DArchitects%2BDaughter;fontSize=20;" vertex="1" parent="hCGjYZj7xdYVqwGix5T1-9">
                    <mxGeometry width="300" height="196" as="geometry"/>
                </mxCell>
                <mxCell id="hCGjYZj7xdYVqwGix5T1-3" value="Khối ngành A" style="text;html=1;strokeColor=none;fillColor=none;align=center;verticalAlign=middle;whiteSpace=wrap;rounded=0;sketch=1;hachureGap=4;jiggle=2;curveFitting=1;fontFamily=Architects Daughter;fontSource=https%3A%2F%2Ffonts.googleapis.com%2Fcss%3Ffamily%3DArchitects%2BDaughter;fontSize=20;" vertex="1" parent="hCGjYZj7xdYVqwGix5T1-9">
                    <mxGeometry x="20" y="6" width="140" height="30" as="geometry"/>
                </mxCell>
                <mxCell id="hCGjYZj7xdYVqwGix5T1-5" value="" style="endArrow=none;html=1;sketch=1;hachureGap=4;jiggle=2;curveFitting=1;fontFamily=Architects Daughter;fontSource=https%3A%2F%2Ffonts.googleapis.com%2Fcss%3Ffamily%3DArchitects%2BDaughter;fontSize=16;strokeColor=default;" edge="1" parent="hCGjYZj7xdYVqwGix5T1-9">
                    <mxGeometry width="50" height="50" relative="1" as="geometry">
                        <mxPoint x="25" y="36" as="sourcePoint"/>
                        <mxPoint x="275" y="36" as="targetPoint"/>
                    </mxGeometry>
                </mxCell>
                <mxCell id="hCGjYZj7xdYVqwGix5T1-6" value="&lt;ul&gt;&lt;li&gt;Ngành 1&lt;/li&gt;&lt;li&gt;Ngành 2&lt;/li&gt;&lt;li&gt;Ngành 3&lt;/li&gt;&lt;/ul&gt;" style="text;strokeColor=none;fillColor=none;html=1;whiteSpace=wrap;verticalAlign=middle;overflow=hidden;sketch=1;hachureGap=4;jiggle=2;curveFitting=1;fontFamily=Architects Daughter;fontSource=https%3A%2F%2Ffonts.googleapis.com%2Fcss%3Ffamily%3DArchitects%2BDaughter;fontSize=20;" vertex="1" parent="hCGjYZj7xdYVqwGix5T1-9">
                    <mxGeometry x="20" y="36" width="145" height="130" as="geometry"/>
                </mxCell>
                <UserObject label="Xem thêm" link="https://www.draw.io" id="hCGjYZj7xdYVqwGix5T1-8">
                    <mxCell style="text;html=1;strokeColor=none;fillColor=none;whiteSpace=wrap;align=center;verticalAlign=middle;fontColor=#0000EE;fontStyle=4;sketch=1;hachureGap=4;jiggle=2;curveFitting=1;fontFamily=Architects Daughter;fontSource=https%3A%2F%2Ffonts.googleapis.com%2Fcss%3Ffamily%3DArchitects%2BDaughter;fontSize=20;" vertex="1" parent="hCGjYZj7xdYVqwGix5T1-9">
                        <mxGeometry x="40" y="146" width="120" height="40" as="geometry"/>
                    </mxCell>
                </UserObject>
                <mxCell id="G89YL7n130eS0L4HP1K7-12" value="" style="group" vertex="1" connectable="0" parent="1">
                    <mxGeometry x="40" y="600" width="160" height="210" as="geometry"/>
                </mxCell>
                <mxCell id="G89YL7n130eS0L4HP1K7-1" value="Title" style="text;html=1;strokeColor=none;fillColor=none;align=center;verticalAlign=middle;whiteSpace=wrap;rounded=0;sketch=1;hachureGap=4;jiggle=2;curveFitting=1;fontFamily=Architects Daughter;fontSource=https%3A%2F%2Ffonts.googleapis.com%2Fcss%3Ffamily%3DArchitects%2BDaughter;fontSize=20;" vertex="1" parent="G89YL7n130eS0L4HP1K7-12">
                    <mxGeometry width="100" height="30" as="geometry"/>
                </mxCell>
                <mxCell id="G89YL7n130eS0L4HP1K7-2" value="" style="endArrow=none;html=1;sketch=1;hachureGap=4;jiggle=2;curveFitting=1;strokeColor=default;fontFamily=Architects Daughter;fontSource=https%3A%2F%2Ffonts.googleapis.com%2Fcss%3Ffamily%3DArchitects%2BDaughter;fontSize=16;entryX=1;entryY=0;entryDx=0;entryDy=0;" edge="1" parent="G89YL7n130eS0L4HP1K7-12" target="G89YL7n130eS0L4HP1K7-11">
                    <mxGeometry width="50" height="50" relative="1" as="geometry">
                        <mxPoint y="40" as="sourcePoint"/>
                        <mxPoint x="280" y="40" as="targetPoint"/>
                    </mxGeometry>
                </mxCell>
                <mxCell id="G89YL7n130eS0L4HP1K7-11" value="&lt;ul&gt;&lt;li&gt;Item 1&lt;/li&gt;&lt;li&gt;Item 2&lt;/li&gt;&lt;li&gt;Item 3&lt;/li&gt;&lt;li&gt;Item 4&lt;/li&gt;&lt;/ul&gt;" style="text;strokeColor=none;fillColor=none;html=1;whiteSpace=wrap;verticalAlign=middle;overflow=hidden;sketch=1;hachureGap=4;jiggle=2;curveFitting=1;fontFamily=Architects Daughter;fontSource=https%3A%2F%2Ffonts.googleapis.com%2Fcss%3Ffamily%3DArchitects%2BDaughter;fontSize=20;" vertex="1" parent="G89YL7n130eS0L4HP1K7-12">
                    <mxGeometry y="40" width="160" height="170" as="geometry"/>
                </mxCell>
                <mxCell id="EQBzh4Et1O22BudpXExs-1" value="" style="group" vertex="1" connectable="0" parent="1">
                    <mxGeometry x="240" y="600" width="200" height="210" as="geometry"/>
                </mxCell>
                <mxCell id="G89YL7n130eS0L4HP1K7-14" value="Các khối ngành nghề" style="text;html=1;strokeColor=none;fillColor=none;align=center;verticalAlign=middle;whiteSpace=wrap;rounded=0;sketch=1;hachureGap=4;jiggle=2;curveFitting=1;fontFamily=Architects Daughter;fontSource=https%3A%2F%2Ffonts.googleapis.com%2Fcss%3Ffamily%3DArchitects%2BDaughter;fontSize=20;" vertex="1" parent="EQBzh4Et1O22BudpXExs-1">
                    <mxGeometry width="200" height="30" as="geometry"/>
                </mxCell>
                <mxCell id="G89YL7n130eS0L4HP1K7-15" value="" style="endArrow=none;html=1;sketch=1;hachureGap=4;jiggle=2;curveFitting=1;strokeColor=default;fontFamily=Architects Daughter;fontSource=https%3A%2F%2Ffonts.googleapis.com%2Fcss%3Ffamily%3DArchitects%2BDaughter;fontSize=16;" edge="1" parent="EQBzh4Et1O22BudpXExs-1">
                    <mxGeometry width="50" height="50" relative="1" as="geometry">
                        <mxPoint y="40" as="sourcePoint"/>
                        <mxPoint x="200" y="40" as="targetPoint"/>
                    </mxGeometry>
                </mxCell>
                <mxCell id="G89YL7n130eS0L4HP1K7-16" value="&lt;ul&gt;&lt;li&gt;khối ngành 1&lt;/li&gt;&lt;li&gt;khối ngành 2&lt;/li&gt;&lt;li&gt;khối ngành 3&lt;/li&gt;&lt;li&gt;khối ngành 4&lt;/li&gt;&lt;/ul&gt;" style="text;strokeColor=none;fillColor=none;html=1;whiteSpace=wrap;verticalAlign=middle;overflow=hidden;sketch=1;hachureGap=4;jiggle=2;curveFitting=1;fontFamily=Architects Daughter;fontSource=https%3A%2F%2Ffonts.googleapis.com%2Fcss%3Ffamily%3DArchitects%2BDaughter;fontSize=20;" vertex="1" parent="EQBzh4Et1O22BudpXExs-1">
                    <mxGeometry y="40" width="160" height="170" as="geometry"/>
                </mxCell>
                <mxCell id="pBqjo9yQ80hmZWiuA2jB-1" value="" style="group" vertex="1" connectable="0" parent="1">
                    <mxGeometry x="40" y="810" width="840" height="96" as="geometry"/>
                </mxCell>
                <mxCell id="pBqjo9yQ80hmZWiuA2jB-2" value="" style="verticalLabelPosition=bottom;shadow=0;dashed=0;align=center;html=1;verticalAlign=top;strokeWidth=1;shape=mxgraph.mockup.graphics.simpleIcon;strokeColor=#999999;sketch=1;hachureGap=4;jiggle=2;curveFitting=1;fontFamily=Architects Daughter;fontSource=https%3A%2F%2Ffonts.googleapis.com%2Fcss%3Ffamily%3DArchitects%2BDaughter;fontSize=20;" vertex="1" parent="pBqjo9yQ80hmZWiuA2jB-1">
                    <mxGeometry width="840" height="96" as="geometry"/>
                </mxCell>
                <mxCell id="pBqjo9yQ80hmZWiuA2jB-3" value="Header" style="text;html=1;strokeColor=none;fillColor=none;align=center;verticalAlign=middle;whiteSpace=wrap;rounded=0;sketch=1;hachureGap=4;jiggle=2;curveFitting=1;fontFamily=Architects Daughter;fontSource=https%3A%2F%2Ffonts.googleapis.com%2Fcss%3Ffamily%3DArchitects%2BDaughter;fontSize=20;" vertex="1" parent="pBqjo9yQ80hmZWiuA2jB-1">
                    <mxGeometry x="227.5" y="33" width="385" height="30" as="geometry"/>
                </mxCell>
                <mxCell id="pBqjo9yQ80hmZWiuA2jB-4" value="" style="group" vertex="1" connectable="0" parent="1">
                    <mxGeometry x="40" y="960" width="840" height="96" as="geometry"/>
                </mxCell>
                <mxCell id="pBqjo9yQ80hmZWiuA2jB-5" value="" style="verticalLabelPosition=bottom;shadow=0;dashed=0;align=center;html=1;verticalAlign=top;strokeWidth=1;shape=mxgraph.mockup.graphics.simpleIcon;strokeColor=#999999;sketch=1;hachureGap=4;jiggle=2;curveFitting=1;fontFamily=Architects Daughter;fontSource=https%3A%2F%2Ffonts.googleapis.com%2Fcss%3Ffamily%3DArchitects%2BDaughter;fontSize=20;" vertex="1" parent="pBqjo9yQ80hmZWiuA2jB-4">
                    <mxGeometry width="840" height="96" as="geometry"/>
                </mxCell>
                <mxCell id="pBqjo9yQ80hmZWiuA2jB-6" value="Footer" style="text;html=1;strokeColor=none;fillColor=none;align=center;verticalAlign=middle;whiteSpace=wrap;rounded=0;sketch=1;hachureGap=4;jiggle=2;curveFitting=1;fontFamily=Architects Daughter;fontSource=https%3A%2F%2Ffonts.googleapis.com%2Fcss%3Ffamily%3DArchitects%2BDaughter;fontSize=20;" vertex="1" parent="pBqjo9yQ80hmZWiuA2jB-4">
                    <mxGeometry x="227.5" y="33" width="385" height="30" as="geometry"/>
                </mxCell>
                <mxCell id="uFAgkFWPNAmRvEtqt-X4-2" value="&lt;ul&gt;&lt;li&gt;Ngành A (30)&lt;/li&gt;&lt;ul&gt;&lt;li&gt;Ngành 1 liên quan tới A (21)&lt;/li&gt;&lt;li&gt;Ngành 2 liên quan tới A (33)&amp;nbsp;&lt;/li&gt;&lt;/ul&gt;&lt;li&gt;Ngành B (1203)&lt;/li&gt;&lt;ul&gt;&lt;li&gt;Ngành 3 liên quan tới B (21)&lt;/li&gt;&lt;li&gt;Ngành 4 liên quan tới B (33)&lt;/li&gt;&lt;/ul&gt;&lt;/ul&gt;" style="text;strokeColor=none;fillColor=none;html=1;whiteSpace=wrap;verticalAlign=middle;overflow=hidden;sketch=1;hachureGap=4;jiggle=2;curveFitting=1;fontFamily=Architects Daughter;fontSource=https%3A%2F%2Ffonts.googleapis.com%2Fcss%3Ffamily%3DArchitects%2BDaughter;fontSize=30;fontColor=#C9C9C9;" vertex="1" parent="1">
                    <mxGeometry x="140" y="1150" width="530" height="320" as="geometry"/>
                </mxCell>
                <mxCell id="AucdmG-J2v2j8voNG-CG-12" value="" style="group" vertex="1" connectable="0" parent="1">
                    <mxGeometry x="180" y="1510" width="530" height="40" as="geometry"/>
                </mxCell>
                <mxCell id="AucdmG-J2v2j8voNG-CG-2" value="1" style="ellipse;whiteSpace=wrap;html=1;sketch=1;hachureGap=4;jiggle=2;curveFitting=1;fontFamily=Architects Daughter;fontSource=https%3A%2F%2Ffonts.googleapis.com%2Fcss%3Ffamily%3DArchitects%2BDaughter;fontSize=20;" vertex="1" parent="AucdmG-J2v2j8voNG-CG-12">
                    <mxGeometry x="100" width="40" height="40" as="geometry"/>
                </mxCell>
                <mxCell id="AucdmG-J2v2j8voNG-CG-3" value="2" style="ellipse;whiteSpace=wrap;html=1;sketch=1;hachureGap=4;jiggle=2;curveFitting=1;fontFamily=Architects Daughter;fontSource=https%3A%2F%2Ffonts.googleapis.com%2Fcss%3Ffamily%3DArchitects%2BDaughter;fontSize=20;" vertex="1" parent="AucdmG-J2v2j8voNG-CG-12">
                    <mxGeometry x="150" width="40" height="40" as="geometry"/>
                </mxCell>
                <mxCell id="AucdmG-J2v2j8voNG-CG-4" value="3" style="ellipse;whiteSpace=wrap;html=1;sketch=1;hachureGap=4;jiggle=2;curveFitting=1;fontFamily=Architects Daughter;fontSource=https%3A%2F%2Ffonts.googleapis.com%2Fcss%3Ffamily%3DArchitects%2BDaughter;fontSize=20;" vertex="1" parent="AucdmG-J2v2j8voNG-CG-12">
                    <mxGeometry x="200" width="40" height="40" as="geometry"/>
                </mxCell>
                <mxCell id="AucdmG-J2v2j8voNG-CG-5" value="" style="ellipse;whiteSpace=wrap;html=1;sketch=1;hachureGap=4;jiggle=2;curveFitting=1;fontFamily=Architects Daughter;fontSource=https%3A%2F%2Ffonts.googleapis.com%2Fcss%3Ffamily%3DArchitects%2BDaughter;fontSize=20;" vertex="1" parent="AucdmG-J2v2j8voNG-CG-12">
                    <mxGeometry x="260" y="10" width="20" height="20" as="geometry"/>
                </mxCell>
                <mxCell id="AucdmG-J2v2j8voNG-CG-6" value="" style="ellipse;whiteSpace=wrap;html=1;sketch=1;hachureGap=4;jiggle=2;curveFitting=1;fontFamily=Architects Daughter;fontSource=https%3A%2F%2Ffonts.googleapis.com%2Fcss%3Ffamily%3DArchitects%2BDaughter;fontSize=20;" vertex="1" parent="AucdmG-J2v2j8voNG-CG-12">
                    <mxGeometry x="300" y="10" width="20" height="20" as="geometry"/>
                </mxCell>
                <mxCell id="AucdmG-J2v2j8voNG-CG-7" value="" style="ellipse;whiteSpace=wrap;html=1;sketch=1;hachureGap=4;jiggle=2;curveFitting=1;fontFamily=Architects Daughter;fontSource=https%3A%2F%2Ffonts.googleapis.com%2Fcss%3Ffamily%3DArchitects%2BDaughter;fontSize=20;" vertex="1" parent="AucdmG-J2v2j8voNG-CG-12">
                    <mxGeometry x="350" y="10" width="20" height="20" as="geometry"/>
                </mxCell>
                <mxCell id="AucdmG-J2v2j8voNG-CG-8" value="99" style="ellipse;whiteSpace=wrap;html=1;sketch=1;hachureGap=4;jiggle=2;curveFitting=1;fontFamily=Architects Daughter;fontSource=https%3A%2F%2Ffonts.googleapis.com%2Fcss%3Ffamily%3DArchitects%2BDaughter;fontSize=20;" vertex="1" parent="AucdmG-J2v2j8voNG-CG-12">
                    <mxGeometry x="390" width="40" height="40" as="geometry"/>
                </mxCell>
                <mxCell id="AucdmG-J2v2j8voNG-CG-9" value="Sau" style="text;html=1;strokeColor=none;fillColor=none;align=center;verticalAlign=middle;whiteSpace=wrap;rounded=0;sketch=1;hachureGap=4;jiggle=2;curveFitting=1;fontFamily=Architects Daughter;fontSource=https%3A%2F%2Ffonts.googleapis.com%2Fcss%3Ffamily%3DArchitects%2BDaughter;fontSize=20;" vertex="1" parent="AucdmG-J2v2j8voNG-CG-12">
                    <mxGeometry x="440" y="5" width="90" height="30" as="geometry"/>
                </mxCell>
                <mxCell id="AucdmG-J2v2j8voNG-CG-11" value="Trước" style="text;html=1;strokeColor=none;fillColor=none;align=center;verticalAlign=middle;whiteSpace=wrap;rounded=0;sketch=1;hachureGap=4;jiggle=2;curveFitting=1;fontFamily=Architects Daughter;fontSource=https%3A%2F%2Ffonts.googleapis.com%2Fcss%3Ffamily%3DArchitects%2BDaughter;fontSize=20;" vertex="1" parent="AucdmG-J2v2j8voNG-CG-12">
                    <mxGeometry y="10" width="90" height="30" as="geometry"/>
                </mxCell>
                <mxCell id="ipwWa38ZnlefvJzrnMNI-22" value="" style="group" vertex="1" connectable="0" parent="1">
                    <mxGeometry x="960" y="40" width="290" height="440" as="geometry"/>
                </mxCell>
                <mxCell id="ipwWa38ZnlefvJzrnMNI-1" value="&lt;b&gt;&lt;i&gt;Khối ngành&lt;/i&gt;&lt;/b&gt;" style="text;html=1;strokeColor=none;fillColor=none;align=left;verticalAlign=middle;whiteSpace=wrap;rounded=0;sketch=1;hachureGap=4;jiggle=2;curveFitting=1;fontFamily=Architects Daughter;fontSource=https%3A%2F%2Ffonts.googleapis.com%2Fcss%3Ffamily%3DArchitects%2BDaughter;fontSize=20;" vertex="1" parent="ipwWa38ZnlefvJzrnMNI-22">
                    <mxGeometry width="200" height="30" as="geometry"/>
                </mxCell>
                <mxCell id="ipwWa38ZnlefvJzrnMNI-3" value="Khối ngành A (241)" style="text;html=1;strokeColor=none;fillColor=none;align=left;verticalAlign=middle;whiteSpace=wrap;rounded=0;labelBackgroundColor=none;sketch=1;hachureGap=4;jiggle=2;curveFitting=1;fontFamily=Architects Daughter;fontSource=https%3A%2F%2Ffonts.googleapis.com%2Fcss%3Ffamily%3DArchitects%2BDaughter;fontSize=21;fontColor=default;" vertex="1" parent="ipwWa38ZnlefvJzrnMNI-22">
                    <mxGeometry y="50" width="200" height="30" as="geometry"/>
                </mxCell>
                <mxCell id="ipwWa38ZnlefvJzrnMNI-5" value="&lt;b&gt;&lt;i&gt;Các ngành nghề&lt;/i&gt;&lt;/b&gt;" style="text;html=1;strokeColor=none;fillColor=none;align=left;verticalAlign=middle;whiteSpace=wrap;rounded=0;sketch=1;hachureGap=4;jiggle=2;curveFitting=1;fontFamily=Architects Daughter;fontSource=https%3A%2F%2Ffonts.googleapis.com%2Fcss%3Ffamily%3DArchitects%2BDaughter;fontSize=20;" vertex="1" parent="ipwWa38ZnlefvJzrnMNI-22">
                    <mxGeometry y="90" width="200" height="30" as="geometry"/>
                </mxCell>
                <mxCell id="ipwWa38ZnlefvJzrnMNI-6" value="&lt;span style=&quot;background-color: initial;&quot;&gt;Ngành 1 (34)&lt;/span&gt;&lt;br&gt;Ngành 2 (21)&lt;br&gt;o o o" style="text;strokeColor=none;fillColor=none;html=1;whiteSpace=wrap;verticalAlign=top;overflow=hidden;labelBackgroundColor=none;sketch=1;hachureGap=4;jiggle=2;curveFitting=1;fontFamily=Architects Daughter;fontSource=https%3A%2F%2Ffonts.googleapis.com%2Fcss%3Ffamily%3DArchitects%2BDaughter;fontSize=21;fontColor=default;horizontal=1;" vertex="1" parent="ipwWa38ZnlefvJzrnMNI-22">
                    <mxGeometry y="120" width="190" height="90" as="geometry"/>
                </mxCell>
                <mxCell id="ipwWa38ZnlefvJzrnMNI-8" value="&lt;b&gt;&lt;i&gt;Xem thêm ngành&lt;/i&gt;&lt;/b&gt;" style="text;html=1;strokeColor=none;fillColor=none;align=left;verticalAlign=middle;whiteSpace=wrap;rounded=0;sketch=1;hachureGap=4;jiggle=2;curveFitting=1;fontFamily=Architects Daughter;fontSource=https%3A%2F%2Ffonts.googleapis.com%2Fcss%3Ffamily%3DArchitects%2BDaughter;fontSize=20;" vertex="1" parent="ipwWa38ZnlefvJzrnMNI-22">
                    <mxGeometry y="200" width="200" height="30" as="geometry"/>
                </mxCell>
                <mxCell id="ipwWa38ZnlefvJzrnMNI-9" value="&lt;span style=&quot;background-color: initial;&quot;&gt;Ngành liên quan 3 (34)&lt;/span&gt;&lt;br&gt;&lt;span style=&quot;background-color: initial;&quot;&gt;Ngành liên quan 4 (21)&lt;br&gt;o o o&lt;br&gt;&lt;/span&gt;" style="text;strokeColor=none;fillColor=none;html=1;whiteSpace=wrap;verticalAlign=top;overflow=hidden;labelBackgroundColor=none;sketch=1;hachureGap=4;jiggle=2;curveFitting=1;fontFamily=Architects Daughter;fontSource=https%3A%2F%2Ffonts.googleapis.com%2Fcss%3Ffamily%3DArchitects%2BDaughter;fontSize=21;fontColor=default;horizontal=1;" vertex="1" parent="ipwWa38ZnlefvJzrnMNI-22">
                    <mxGeometry x="10" y="230" width="220" height="80" as="geometry"/>
                </mxCell>
                <mxCell id="ipwWa38ZnlefvJzrnMNI-16" value="" style="endArrow=none;html=1;sketch=1;hachureGap=4;jiggle=2;curveFitting=1;strokeColor=default;fontFamily=Architects Daughter;fontSource=https%3A%2F%2Ffonts.googleapis.com%2Fcss%3Ffamily%3DArchitects%2BDaughter;fontSize=16;" edge="1" parent="ipwWa38ZnlefvJzrnMNI-22">
                    <mxGeometry width="50" height="50" relative="1" as="geometry">
                        <mxPoint y="349.9999999999999" as="sourcePoint"/>
                        <mxPoint x="290" y="350" as="targetPoint"/>
                    </mxGeometry>
                </mxCell>
                <mxCell id="ipwWa38ZnlefvJzrnMNI-17" value="&lt;b&gt;&lt;i&gt;Tỉnh/thành phố&lt;/i&gt;&lt;/b&gt;" style="text;html=1;strokeColor=none;fillColor=none;align=left;verticalAlign=middle;whiteSpace=wrap;rounded=0;sketch=1;hachureGap=4;jiggle=2;curveFitting=1;fontFamily=Architects Daughter;fontSource=https%3A%2F%2Ffonts.googleapis.com%2Fcss%3Ffamily%3DArchitects%2BDaughter;fontSize=20;" vertex="1" parent="ipwWa38ZnlefvJzrnMNI-22">
                    <mxGeometry y="320" width="200" height="30" as="geometry"/>
                </mxCell>
                <mxCell id="ipwWa38ZnlefvJzrnMNI-18" value="&lt;span style=&quot;background-color: initial;&quot;&gt;Khối ngành A ở Hà Nội (34)&lt;/span&gt;&lt;br&gt;&lt;span style=&quot;background-color: initial;&quot;&gt;Khối ngành A ở tỉnh B (21)&lt;br&gt;o o o&lt;br&gt;&lt;/span&gt;" style="text;strokeColor=none;fillColor=none;html=1;whiteSpace=wrap;verticalAlign=top;overflow=hidden;labelBackgroundColor=none;sketch=1;hachureGap=4;jiggle=2;curveFitting=1;fontFamily=Architects Daughter;fontSource=https%3A%2F%2Ffonts.googleapis.com%2Fcss%3Ffamily%3DArchitects%2BDaughter;fontSize=21;fontColor=default;horizontal=1;" vertex="1" parent="ipwWa38ZnlefvJzrnMNI-22">
                    <mxGeometry y="360" width="270" height="80" as="geometry"/>
                </mxCell>
                <mxCell id="ipwWa38ZnlefvJzrnMNI-19" value="" style="endArrow=none;html=1;sketch=1;hachureGap=4;jiggle=2;curveFitting=1;strokeColor=default;fontFamily=Architects Daughter;fontSource=https%3A%2F%2Ffonts.googleapis.com%2Fcss%3Ffamily%3DArchitects%2BDaughter;fontSize=16;" edge="1" parent="ipwWa38ZnlefvJzrnMNI-22">
                    <mxGeometry width="50" height="50" relative="1" as="geometry">
                        <mxPoint y="230" as="sourcePoint"/>
                        <mxPoint x="290" y="230" as="targetPoint"/>
                    </mxGeometry>
                </mxCell>
                <mxCell id="ipwWa38ZnlefvJzrnMNI-20" value="" style="endArrow=none;html=1;sketch=1;hachureGap=4;jiggle=2;curveFitting=1;strokeColor=default;fontFamily=Architects Daughter;fontSource=https%3A%2F%2Ffonts.googleapis.com%2Fcss%3Ffamily%3DArchitects%2BDaughter;fontSize=16;" edge="1" parent="ipwWa38ZnlefvJzrnMNI-22">
                    <mxGeometry width="50" height="50" relative="1" as="geometry">
                        <mxPoint y="120" as="sourcePoint"/>
                        <mxPoint x="290" y="120" as="targetPoint"/>
                    </mxGeometry>
                </mxCell>
                <mxCell id="ipwWa38ZnlefvJzrnMNI-21" value="" style="endArrow=none;html=1;sketch=1;hachureGap=4;jiggle=2;curveFitting=1;strokeColor=default;fontFamily=Architects Daughter;fontSource=https%3A%2F%2Ffonts.googleapis.com%2Fcss%3Ffamily%3DArchitects%2BDaughter;fontSize=16;" edge="1" parent="ipwWa38ZnlefvJzrnMNI-22">
                    <mxGeometry width="50" height="50" relative="1" as="geometry">
                        <mxPoint y="40" as="sourcePoint"/>
                        <mxPoint x="290" y="40" as="targetPoint"/>
                    </mxGeometry>
                </mxCell>
                <mxCell id="TRFvcZL57-0z3jOL2BH5-6" value="" style="group" vertex="1" connectable="0" parent="1">
                    <mxGeometry x="960" y="530" width="510" height="340" as="geometry"/>
                </mxCell>
                <mxCell id="TRFvcZL57-0z3jOL2BH5-2" value="" style="rounded=0;whiteSpace=wrap;html=1;labelBackgroundColor=none;sketch=1;hachureGap=4;jiggle=2;curveFitting=1;fontFamily=Architects Daughter;fontSource=https%3A%2F%2Ffonts.googleapis.com%2Fcss%3Ffamily%3DArchitects%2BDaughter;fontSize=21;fontColor=default;fillColor=none;" vertex="1" parent="TRFvcZL57-0z3jOL2BH5-6">
                    <mxGeometry width="480" height="340" as="geometry"/>
                </mxCell>
                <mxCell id="TRFvcZL57-0z3jOL2BH5-3" value="Ngành tiêu điểm" style="text;strokeColor=none;fillColor=none;html=1;fontSize=24;fontStyle=1;verticalAlign=middle;align=center;labelBackgroundColor=none;sketch=1;hachureGap=4;jiggle=2;curveFitting=1;fontFamily=Architects Daughter;fontSource=https%3A%2F%2Ffonts.googleapis.com%2Fcss%3Ffamily%3DArchitects%2BDaughter;fontColor=default;" vertex="1" parent="TRFvcZL57-0z3jOL2BH5-6">
                    <mxGeometry x="80" y="30" width="100" height="40" as="geometry"/>
                </mxCell>
                <mxCell id="TRFvcZL57-0z3jOL2BH5-4" value="&lt;ul&gt;&lt;li&gt;Ngành 1 (19)&lt;/li&gt;&lt;li&gt;Ngành 2 (43)&lt;/li&gt;&lt;li&gt;Ngành 3 (52)&lt;/li&gt;&lt;/ul&gt;" style="text;strokeColor=none;fillColor=none;html=1;whiteSpace=wrap;verticalAlign=top;overflow=hidden;labelBackgroundColor=none;sketch=1;hachureGap=4;jiggle=2;curveFitting=1;fontFamily=Architects Daughter;fontSource=https%3A%2F%2Ffonts.googleapis.com%2Fcss%3Ffamily%3DArchitects%2BDaughter;fontSize=21;fontColor=default;" vertex="1" parent="TRFvcZL57-0z3jOL2BH5-6">
                    <mxGeometry x="40" y="70" width="230" height="140" as="geometry"/>
                </mxCell>
                <mxCell id="TRFvcZL57-0z3jOL2BH5-5" value="&lt;ul&gt;&lt;li&gt;Ngành 4 (19)&lt;/li&gt;&lt;li&gt;Ngành 5 (43)&lt;/li&gt;&lt;li&gt;Ngành 6 (52)&lt;/li&gt;&lt;/ul&gt;" style="text;strokeColor=none;fillColor=none;html=1;whiteSpace=wrap;verticalAlign=top;overflow=hidden;labelBackgroundColor=none;sketch=1;hachureGap=4;jiggle=2;curveFitting=1;fontFamily=Architects Daughter;fontSource=https%3A%2F%2Ffonts.googleapis.com%2Fcss%3Ffamily%3DArchitects%2BDaughter;fontSize=21;fontColor=default;" vertex="1" parent="TRFvcZL57-0z3jOL2BH5-6">
                    <mxGeometry x="280" y="70" width="230" height="140" as="geometry"/>
                </mxCell>
                <mxCell id="JfXjwA0tL5dmOU1cTIUP-3" value="" style="group" vertex="1" connectable="0" parent="1">
                    <mxGeometry x="410" y="360" width="240" height="96" as="geometry"/>
                </mxCell>
                <mxCell id="tcHhuSBlvqbHKgXmT_nv-8" value="" style="group" vertex="1" connectable="0" parent="JfXjwA0tL5dmOU1cTIUP-3">
                    <mxGeometry width="240" height="96" as="geometry"/>
                </mxCell>
                <mxCell id="JfXjwA0tL5dmOU1cTIUP-4" value="" style="verticalLabelPosition=bottom;shadow=0;dashed=0;align=center;html=1;verticalAlign=top;strokeWidth=1;shape=mxgraph.mockup.graphics.simpleIcon;strokeColor=#999999;sketch=1;hachureGap=4;jiggle=2;curveFitting=1;fontFamily=Architects Daughter;fontSource=https%3A%2F%2Ffonts.googleapis.com%2Fcss%3Ffamily%3DArchitects%2BDaughter;fontSize=20;" vertex="1" parent="tcHhuSBlvqbHKgXmT_nv-8">
                    <mxGeometry width="240" height="96" as="geometry"/>
                </mxCell>
                <mxCell id="JfXjwA0tL5dmOU1cTIUP-5" value="Ảnh đại diện" style="text;html=1;strokeColor=none;fillColor=none;align=center;verticalAlign=middle;whiteSpace=wrap;rounded=0;sketch=1;hachureGap=4;jiggle=2;curveFitting=1;fontFamily=Architects Daughter;fontSource=https%3A%2F%2Ffonts.googleapis.com%2Fcss%3Ffamily%3DArchitects%2BDaughter;fontSize=20;" vertex="1" parent="tcHhuSBlvqbHKgXmT_nv-8">
                    <mxGeometry x="65" y="33" width="110" height="30" as="geometry"/>
                </mxCell>
                <mxCell id="JfXjwA0tL5dmOU1cTIUP-6" value="Niên giám A" style="ellipse;whiteSpace=wrap;html=1;sketch=1;hachureGap=4;jiggle=2;curveFitting=1;fontFamily=Architects Daughter;fontSource=https%3A%2F%2Ffonts.googleapis.com%2Fcss%3Ffamily%3DArchitects%2BDaughter;fontSize=20;" vertex="1" parent="1">
                    <mxGeometry x="410" y="480" width="240" height="40" as="geometry"/>
                </mxCell>
                <mxCell id="tcHhuSBlvqbHKgXmT_nv-15" value="" style="group" vertex="1" connectable="0" parent="1">
                    <mxGeometry x="960" y="920" width="1320" height="440" as="geometry"/>
                </mxCell>
                <mxCell id="tcHhuSBlvqbHKgXmT_nv-2" value="" style="rounded=0;whiteSpace=wrap;html=1;labelBackgroundColor=none;sketch=1;hachureGap=4;jiggle=2;curveFitting=1;fontFamily=Architects Daughter;fontSource=https%3A%2F%2Ffonts.googleapis.com%2Fcss%3Ffamily%3DArchitects%2BDaughter;fontSize=21;fontColor=default;fillColor=none;" vertex="1" parent="tcHhuSBlvqbHKgXmT_nv-15">
                    <mxGeometry width="1320" height="440" as="geometry"/>
                </mxCell>
                <mxCell id="tcHhuSBlvqbHKgXmT_nv-3" value="Nhóm A1" style="text;strokeColor=none;fillColor=none;html=1;fontSize=24;fontStyle=1;verticalAlign=middle;align=left;labelBackgroundColor=none;sketch=1;hachureGap=4;jiggle=2;curveFitting=1;fontFamily=Architects Daughter;fontSource=https%3A%2F%2Ffonts.googleapis.com%2Fcss%3Ffamily%3DArchitects%2BDaughter;fontColor=default;" vertex="1" parent="tcHhuSBlvqbHKgXmT_nv-15">
                    <mxGeometry x="39.99607843137255" y="39.997058823529414" width="162.7450980392157" height="63.52941176470588" as="geometry"/>
                </mxCell>
                <mxCell id="tcHhuSBlvqbHKgXmT_nv-9" value="" style="group" vertex="1" connectable="0" parent="tcHhuSBlvqbHKgXmT_nv-15">
                    <mxGeometry x="40" y="110" width="240" height="230" as="geometry"/>
                </mxCell>
                <mxCell id="tcHhuSBlvqbHKgXmT_nv-10" value="" style="group" vertex="1" connectable="0" parent="tcHhuSBlvqbHKgXmT_nv-9">
                    <mxGeometry width="240" height="230" as="geometry"/>
                </mxCell>
                <mxCell id="tcHhuSBlvqbHKgXmT_nv-11" value="" style="verticalLabelPosition=bottom;shadow=0;dashed=0;align=center;html=1;verticalAlign=top;strokeWidth=1;shape=mxgraph.mockup.graphics.simpleIcon;strokeColor=#999999;sketch=1;hachureGap=4;jiggle=2;curveFitting=1;fontFamily=Architects Daughter;fontSource=https%3A%2F%2Ffonts.googleapis.com%2Fcss%3Ffamily%3DArchitects%2BDaughter;fontSize=20;" vertex="1" parent="tcHhuSBlvqbHKgXmT_nv-10">
                    <mxGeometry y="10" width="240" height="220" as="geometry"/>
                </mxCell>
                <mxCell id="tcHhuSBlvqbHKgXmT_nv-12" value="Ảnh đại diện" style="text;html=1;strokeColor=none;fillColor=none;align=center;verticalAlign=middle;whiteSpace=wrap;rounded=0;sketch=1;hachureGap=4;jiggle=2;curveFitting=1;fontFamily=Architects Daughter;fontSource=https%3A%2F%2Ffonts.googleapis.com%2Fcss%3Ffamily%3DArchitects%2BDaughter;fontSize=20;" vertex="1" parent="tcHhuSBlvqbHKgXmT_nv-10">
                    <mxGeometry x="70" y="100" width="110" height="30" as="geometry"/>
                </mxCell>
                <mxCell id="tcHhuSBlvqbHKgXmT_nv-13" value="&lt;ul style=&quot;font-size: 23px;&quot;&gt;&lt;li&gt;Ngành A3 (30)&lt;/li&gt;&lt;ul&gt;&lt;li&gt;Ngành 1 liên quan tới A3 (21)&lt;/li&gt;&lt;li&gt;Ngành 2 liên quan tới A3 (33)&amp;nbsp;&lt;/li&gt;&lt;/ul&gt;&lt;li&gt;Ngành A4 (1203)&lt;/li&gt;&lt;ul&gt;&lt;li&gt;Ngành 3 liên quan tới A4 (21)&lt;/li&gt;&lt;li&gt;Ngành 4 liên quan tới A4 (33)&lt;/li&gt;&lt;/ul&gt;&lt;li&gt;o o o&lt;/li&gt;&lt;/ul&gt;" style="text;strokeColor=none;fillColor=none;html=1;whiteSpace=wrap;verticalAlign=middle;overflow=hidden;sketch=1;hachureGap=4;jiggle=2;curveFitting=1;fontFamily=Architects Daughter;fontSource=https%3A%2F%2Ffonts.googleapis.com%2Fcss%3Ffamily%3DArchitects%2BDaughter;fontSize=30;fontColor=#C9C9C9;" vertex="1" parent="tcHhuSBlvqbHKgXmT_nv-15">
                    <mxGeometry x="320" y="90" width="420" height="310" as="geometry"/>
                </mxCell>
                <mxCell id="tcHhuSBlvqbHKgXmT_nv-14" value="&lt;ul style=&quot;font-size: 23px;&quot;&gt;&lt;li&gt;Ngành A5 (30)&lt;/li&gt;&lt;ul&gt;&lt;li&gt;Ngành 1 liên quan tới A5 (21)&lt;/li&gt;&lt;li&gt;Ngành 2 liên quan tới A5 (33)&amp;nbsp;&lt;/li&gt;&lt;/ul&gt;&lt;li&gt;Ngành A6 (1203)&lt;/li&gt;&lt;ul&gt;&lt;li&gt;Ngành 3 liên quan tới A6 (21)&lt;/li&gt;&lt;li&gt;Ngành 4 liên quan tới A6 (33)&lt;/li&gt;&lt;/ul&gt;&lt;li&gt;o o o&lt;/li&gt;&lt;/ul&gt;" style="text;strokeColor=none;fillColor=none;html=1;whiteSpace=wrap;verticalAlign=middle;overflow=hidden;sketch=1;hachureGap=4;jiggle=2;curveFitting=1;fontFamily=Architects Daughter;fontSource=https%3A%2F%2Ffonts.googleapis.com%2Fcss%3Ffamily%3DArchitects%2BDaughter;fontSize=30;fontColor=#C9C9C9;" vertex="1" parent="tcHhuSBlvqbHKgXmT_nv-15">
                    <mxGeometry x="760" y="80" width="420" height="310" as="geometry"/>
                </mxCell>
            </root>
        </mxGraphModel>
    </diagram>
    <diagram name="1. Homepage" id="0SHJS8mtN-pDj7DChiqD">
        <mxGraphModel dx="2529" dy="1406" grid="1" gridSize="10" guides="1" tooltips="1" connect="1" arrows="1" fold="1" page="1" pageScale="1" pageWidth="1600" pageHeight="900" math="0" shadow="0">
            <root>
                <mxCell id="NRnPQJfiNj6VPtT8dH83-0"/>
                <mxCell id="NRnPQJfiNj6VPtT8dH83-1" parent="NRnPQJfiNj6VPtT8dH83-0"/>
                <mxCell id="NRnPQJfiNj6VPtT8dH83-2" value="" style="strokeWidth=1;shadow=0;dashed=0;align=center;html=1;shape=mxgraph.mockup.containers.browserWindow;rSize=0;strokeColor=#666666;strokeColor2=#008cff;strokeColor3=#c4c4c4;mainText=,;recursiveResize=0;hachureGap=4;fontFamily=Architects Daughter;fontSource=https%3A%2F%2Ffonts.googleapis.com%2Fcss%3Ffamily%3DArchitects%2BDaughter;fontSize=20;rounded=0;sketch=1;curveFitting=1;jiggle=2;" vertex="1" parent="NRnPQJfiNj6VPtT8dH83-1">
                    <mxGeometry x="160" y="80" width="840" height="1460" as="geometry"/>
                </mxCell>
                <mxCell id="NRnPQJfiNj6VPtT8dH83-3" value="Vendor dat...." style="strokeWidth=1;shadow=0;dashed=0;align=center;html=1;shape=mxgraph.mockup.containers.anchor;fontSize=17;fontColor=#666666;align=left;hachureGap=4;fontFamily=Architects Daughter;fontSource=https%3A%2F%2Ffonts.googleapis.com%2Fcss%3Ffamily%3DArchitects%2BDaughter;rounded=0;sketch=1;curveFitting=1;jiggle=2;" vertex="1" parent="NRnPQJfiNj6VPtT8dH83-2">
                    <mxGeometry x="60" y="12" width="110" height="26" as="geometry"/>
                </mxCell>
                <mxCell id="NRnPQJfiNj6VPtT8dH83-4" value="https://www.draw.io" style="strokeWidth=1;shadow=0;dashed=0;align=center;html=1;shape=mxgraph.mockup.containers.anchor;rSize=0;fontSize=17;fontColor=#666666;align=left;hachureGap=4;fontFamily=Architects Daughter;fontSource=https%3A%2F%2Ffonts.googleapis.com%2Fcss%3Ffamily%3DArchitects%2BDaughter;rounded=0;sketch=1;curveFitting=1;jiggle=2;" vertex="1" parent="NRnPQJfiNj6VPtT8dH83-2">
                    <mxGeometry x="130" y="60" width="250" height="26" as="geometry"/>
                </mxCell>
                <mxCell id="NRnPQJfiNj6VPtT8dH83-5" value="" style="verticalLabelPosition=bottom;shadow=0;dashed=0;align=center;html=1;verticalAlign=top;strokeWidth=1;shape=mxgraph.mockup.graphics.simpleIcon;strokeColor=#999999;sketch=1;hachureGap=4;jiggle=2;curveFitting=1;fontFamily=Architects Daughter;fontSource=https%3A%2F%2Ffonts.googleapis.com%2Fcss%3Ffamily%3DArchitects%2BDaughter;fontSize=20;" vertex="1" parent="NRnPQJfiNj6VPtT8dH83-2">
                    <mxGeometry x="50" y="122.5" width="170" height="60" as="geometry"/>
                </mxCell>
                <mxCell id="NRnPQJfiNj6VPtT8dH83-6" value="Logo" style="text;html=1;strokeColor=none;fillColor=none;align=center;verticalAlign=middle;whiteSpace=wrap;rounded=0;sketch=1;hachureGap=4;jiggle=2;curveFitting=1;fontFamily=Architects Daughter;fontSource=https%3A%2F%2Ffonts.googleapis.com%2Fcss%3Ffamily%3DArchitects%2BDaughter;fontSize=20;" vertex="1" parent="NRnPQJfiNj6VPtT8dH83-2">
                    <mxGeometry x="80" y="140" width="110" height="30" as="geometry"/>
                </mxCell>
                <mxCell id="NRnPQJfiNj6VPtT8dH83-7" value="" style="verticalLabelPosition=bottom;shadow=0;dashed=0;align=center;html=1;verticalAlign=top;strokeWidth=1;shape=mxgraph.mockup.graphics.simpleIcon;strokeColor=#999999;sketch=1;hachureGap=4;jiggle=2;curveFitting=1;fontFamily=Architects Daughter;fontSource=https%3A%2F%2Ffonts.googleapis.com%2Fcss%3Ffamily%3DArchitects%2BDaughter;fontSize=20;" vertex="1" parent="NRnPQJfiNj6VPtT8dH83-2">
                    <mxGeometry x="50" y="200" width="740" height="340" as="geometry"/>
                </mxCell>
                <mxCell id="NRnPQJfiNj6VPtT8dH83-8" value="" style="group" vertex="1" connectable="0" parent="NRnPQJfiNj6VPtT8dH83-2">
                    <mxGeometry x="590" y="630" width="190" height="160" as="geometry"/>
                </mxCell>
                <mxCell id="NRnPQJfiNj6VPtT8dH83-9" value="" style="group" vertex="1" connectable="0" parent="NRnPQJfiNj6VPtT8dH83-8">
                    <mxGeometry width="190" height="96" as="geometry"/>
                </mxCell>
                <mxCell id="NRnPQJfiNj6VPtT8dH83-10" value="" style="verticalLabelPosition=bottom;shadow=0;dashed=0;align=center;html=1;verticalAlign=top;strokeWidth=1;shape=mxgraph.mockup.graphics.simpleIcon;strokeColor=#999999;sketch=1;hachureGap=4;jiggle=2;curveFitting=1;fontFamily=Architects Daughter;fontSource=https%3A%2F%2Ffonts.googleapis.com%2Fcss%3Ffamily%3DArchitects%2BDaughter;fontSize=20;" vertex="1" parent="NRnPQJfiNj6VPtT8dH83-9">
                    <mxGeometry width="190" height="96" as="geometry"/>
                </mxCell>
                <mxCell id="NRnPQJfiNj6VPtT8dH83-11" value="Ảnh đại diện" style="text;html=1;strokeColor=none;fillColor=none;align=center;verticalAlign=middle;whiteSpace=wrap;rounded=0;sketch=1;hachureGap=4;jiggle=2;curveFitting=1;fontFamily=Architects Daughter;fontSource=https%3A%2F%2Ffonts.googleapis.com%2Fcss%3Ffamily%3DArchitects%2BDaughter;fontSize=20;" vertex="1" parent="NRnPQJfiNj6VPtT8dH83-9">
                    <mxGeometry x="51.45833333333333" y="33" width="87.08333333333333" height="30" as="geometry"/>
                </mxCell>
                <mxCell id="NRnPQJfiNj6VPtT8dH83-12" value="Khối ngành A" style="ellipse;whiteSpace=wrap;html=1;sketch=1;hachureGap=4;jiggle=2;curveFitting=1;fontFamily=Architects Daughter;fontSource=https%3A%2F%2Ffonts.googleapis.com%2Fcss%3Ffamily%3DArchitects%2BDaughter;fontSize=20;" vertex="1" parent="NRnPQJfiNj6VPtT8dH83-8">
                    <mxGeometry y="120" width="190" height="40" as="geometry"/>
                </mxCell>
                <mxCell id="NRnPQJfiNj6VPtT8dH83-13" value="" style="strokeWidth=1;shadow=0;dashed=0;align=center;html=1;shape=mxgraph.mockup.text.rrect;rSize=0;strokeColor=#666666;sketch=1;hachureGap=4;jiggle=2;curveFitting=1;fontFamily=Architects Daughter;fontSource=https%3A%2F%2Ffonts.googleapis.com%2Fcss%3Ffamily%3DArchitects%2BDaughter;fontSize=20;" vertex="1" parent="NRnPQJfiNj6VPtT8dH83-2">
                    <mxGeometry x="450" y="140" width="340" height="25" as="geometry"/>
                </mxCell>
                <mxCell id="NRnPQJfiNj6VPtT8dH83-14" value="Button 2" style="strokeColor=inherit;fillColor=inherit;gradientColor=inherit;strokeWidth=1;shadow=0;dashed=0;align=center;html=1;shape=mxgraph.mockup.text.rrect;rSize=0;fontSize=17;fontColor=#0000ff;sketch=1;hachureGap=4;jiggle=2;curveFitting=1;fontFamily=Architects Daughter;fontSource=https%3A%2F%2Ffonts.googleapis.com%2Fcss%3Ffamily%3DArchitects%2BDaughter;" vertex="1" parent="NRnPQJfiNj6VPtT8dH83-13">
                    <mxGeometry x="85" width="85" height="25" as="geometry"/>
                </mxCell>
                <mxCell id="NRnPQJfiNj6VPtT8dH83-15" value="Button 3" style="strokeColor=inherit;fillColor=inherit;gradientColor=inherit;strokeWidth=1;shadow=0;dashed=0;align=center;html=1;shape=mxgraph.mockup.text.rrect;rSize=0;fontSize=17;fontColor=#0000ff;sketch=1;hachureGap=4;jiggle=2;curveFitting=1;fontFamily=Architects Daughter;fontSource=https%3A%2F%2Ffonts.googleapis.com%2Fcss%3Ffamily%3DArchitects%2BDaughter;" vertex="1" parent="NRnPQJfiNj6VPtT8dH83-13">
                    <mxGeometry x="170" width="85" height="25" as="geometry"/>
                </mxCell>
                <mxCell id="NRnPQJfiNj6VPtT8dH83-16" value="Button 4" style="strokeColor=inherit;fillColor=inherit;gradientColor=inherit;strokeWidth=1;shadow=0;dashed=0;align=center;html=1;shape=mxgraph.mockup.text.rrect;rSize=0;fontSize=17;fontColor=#0000ff;sketch=1;hachureGap=4;jiggle=2;curveFitting=1;fontFamily=Architects Daughter;fontSource=https%3A%2F%2Ffonts.googleapis.com%2Fcss%3Ffamily%3DArchitects%2BDaughter;" vertex="1" parent="NRnPQJfiNj6VPtT8dH83-13">
                    <mxGeometry x="255.00000000000003" width="85" height="25" as="geometry"/>
                </mxCell>
                <mxCell id="NRnPQJfiNj6VPtT8dH83-17" value="&lt;font color=&quot;#c9c9c9&quot;&gt;Button 1&lt;/font&gt;" style="strokeWidth=1;shadow=0;dashed=0;align=center;html=1;shape=mxgraph.mockup.text.rrect;rSize=0;fontSize=17;fontColor=#ffffff;fillColor=#008cff;strokeColor=#008cff;sketch=1;hachureGap=4;jiggle=2;curveFitting=1;fontFamily=Architects Daughter;fontSource=https%3A%2F%2Ffonts.googleapis.com%2Fcss%3Ffamily%3DArchitects%2BDaughter;" vertex="1" parent="NRnPQJfiNj6VPtT8dH83-13">
                    <mxGeometry width="85" height="25" as="geometry"/>
                </mxCell>
                <mxCell id="NRnPQJfiNj6VPtT8dH83-18" value="" style="group" vertex="1" connectable="0" parent="NRnPQJfiNj6VPtT8dH83-2">
                    <mxGeometry x="60" y="630" width="190" height="160" as="geometry"/>
                </mxCell>
                <mxCell id="NRnPQJfiNj6VPtT8dH83-19" value="" style="group" vertex="1" connectable="0" parent="NRnPQJfiNj6VPtT8dH83-18">
                    <mxGeometry width="190" height="96" as="geometry"/>
                </mxCell>
                <mxCell id="NRnPQJfiNj6VPtT8dH83-20" value="" style="verticalLabelPosition=bottom;shadow=0;dashed=0;align=center;html=1;verticalAlign=top;strokeWidth=1;shape=mxgraph.mockup.graphics.simpleIcon;strokeColor=#999999;sketch=1;hachureGap=4;jiggle=2;curveFitting=1;fontFamily=Architects Daughter;fontSource=https%3A%2F%2Ffonts.googleapis.com%2Fcss%3Ffamily%3DArchitects%2BDaughter;fontSize=20;" vertex="1" parent="NRnPQJfiNj6VPtT8dH83-19">
                    <mxGeometry width="190" height="96" as="geometry"/>
                </mxCell>
                <mxCell id="NRnPQJfiNj6VPtT8dH83-21" value="Ảnh đại diện" style="text;html=1;strokeColor=none;fillColor=none;align=center;verticalAlign=middle;whiteSpace=wrap;rounded=0;sketch=1;hachureGap=4;jiggle=2;curveFitting=1;fontFamily=Architects Daughter;fontSource=https%3A%2F%2Ffonts.googleapis.com%2Fcss%3Ffamily%3DArchitects%2BDaughter;fontSize=20;" vertex="1" parent="NRnPQJfiNj6VPtT8dH83-19">
                    <mxGeometry x="51.45833333333333" y="33" width="87.08333333333333" height="30" as="geometry"/>
                </mxCell>
                <mxCell id="NRnPQJfiNj6VPtT8dH83-22" value="Khối ngành A" style="ellipse;whiteSpace=wrap;html=1;sketch=1;hachureGap=4;jiggle=2;curveFitting=1;fontFamily=Architects Daughter;fontSource=https%3A%2F%2Ffonts.googleapis.com%2Fcss%3Ffamily%3DArchitects%2BDaughter;fontSize=20;" vertex="1" parent="NRnPQJfiNj6VPtT8dH83-18">
                    <mxGeometry y="120" width="190" height="40" as="geometry"/>
                </mxCell>
                <mxCell id="NRnPQJfiNj6VPtT8dH83-23" value="" style="group" vertex="1" connectable="0" parent="NRnPQJfiNj6VPtT8dH83-2">
                    <mxGeometry x="330" y="630" width="190" height="160" as="geometry"/>
                </mxCell>
                <mxCell id="NRnPQJfiNj6VPtT8dH83-24" value="" style="group" vertex="1" connectable="0" parent="NRnPQJfiNj6VPtT8dH83-23">
                    <mxGeometry width="190" height="96" as="geometry"/>
                </mxCell>
                <mxCell id="NRnPQJfiNj6VPtT8dH83-25" value="" style="verticalLabelPosition=bottom;shadow=0;dashed=0;align=center;html=1;verticalAlign=top;strokeWidth=1;shape=mxgraph.mockup.graphics.simpleIcon;strokeColor=#999999;sketch=1;hachureGap=4;jiggle=2;curveFitting=1;fontFamily=Architects Daughter;fontSource=https%3A%2F%2Ffonts.googleapis.com%2Fcss%3Ffamily%3DArchitects%2BDaughter;fontSize=20;" vertex="1" parent="NRnPQJfiNj6VPtT8dH83-24">
                    <mxGeometry width="190" height="96" as="geometry"/>
                </mxCell>
                <mxCell id="NRnPQJfiNj6VPtT8dH83-26" value="Ảnh đại diện" style="text;html=1;strokeColor=none;fillColor=none;align=center;verticalAlign=middle;whiteSpace=wrap;rounded=0;sketch=1;hachureGap=4;jiggle=2;curveFitting=1;fontFamily=Architects Daughter;fontSource=https%3A%2F%2Ffonts.googleapis.com%2Fcss%3Ffamily%3DArchitects%2BDaughter;fontSize=20;" vertex="1" parent="NRnPQJfiNj6VPtT8dH83-24">
                    <mxGeometry x="51.45833333333333" y="33" width="87.08333333333333" height="30" as="geometry"/>
                </mxCell>
                <mxCell id="NRnPQJfiNj6VPtT8dH83-27" value="Khối ngành A" style="ellipse;whiteSpace=wrap;html=1;sketch=1;hachureGap=4;jiggle=2;curveFitting=1;fontFamily=Architects Daughter;fontSource=https%3A%2F%2Ffonts.googleapis.com%2Fcss%3Ffamily%3DArchitects%2BDaughter;fontSize=20;" vertex="1" parent="NRnPQJfiNj6VPtT8dH83-23">
                    <mxGeometry y="120" width="190" height="40" as="geometry"/>
                </mxCell>
                <mxCell id="NRnPQJfiNj6VPtT8dH83-28" value="Các khối ngành nghề" style="text;html=1;strokeColor=none;fillColor=none;align=center;verticalAlign=middle;whiteSpace=wrap;rounded=0;sketch=1;hachureGap=4;jiggle=2;curveFitting=1;fontFamily=Architects Daughter;fontSource=https%3A%2F%2Ffonts.googleapis.com%2Fcss%3Ffamily%3DArchitects%2BDaughter;fontSize=20;" vertex="1" parent="NRnPQJfiNj6VPtT8dH83-2">
                    <mxGeometry x="50" y="840" width="130" height="30" as="geometry"/>
                </mxCell>
                <mxCell id="NRnPQJfiNj6VPtT8dH83-29" value="" style="endArrow=none;html=1;sketch=1;hachureGap=4;jiggle=2;curveFitting=1;strokeColor=default;fontFamily=Architects Daughter;fontSource=https%3A%2F%2Ffonts.googleapis.com%2Fcss%3Ffamily%3DArchitects%2BDaughter;fontSize=16;entryX=1;entryY=0;entryDx=0;entryDy=0;" edge="1" parent="NRnPQJfiNj6VPtT8dH83-2" target="NRnPQJfiNj6VPtT8dH83-30">
                    <mxGeometry width="50" height="50" relative="1" as="geometry">
                        <mxPoint x="50" y="880" as="sourcePoint"/>
                        <mxPoint x="250" y="880" as="targetPoint"/>
                    </mxGeometry>
                </mxCell>
                <mxCell id="NRnPQJfiNj6VPtT8dH83-30" value="&lt;ul&gt;&lt;li&gt;khối ngành 1&lt;/li&gt;&lt;li&gt;khối ngành 2&lt;/li&gt;&lt;li&gt;khối ngành 3&lt;/li&gt;&lt;li&gt;khối ngành 4&lt;/li&gt;&lt;li&gt;khối ngành 5&lt;/li&gt;&lt;li&gt;khối ngành 6&lt;/li&gt;&lt;li&gt;khối ngành 7&lt;/li&gt;&lt;li&gt;khối ngành 8&lt;/li&gt;&lt;li&gt;khối ngành 9&lt;/li&gt;&lt;li&gt;khối ngành 10&lt;/li&gt;&lt;li&gt;khối ngành 11&lt;/li&gt;&lt;li&gt;khối ngành 12&lt;/li&gt;&lt;/ul&gt;" style="text;strokeColor=none;fillColor=none;html=1;whiteSpace=wrap;verticalAlign=middle;overflow=hidden;sketch=1;hachureGap=4;jiggle=2;curveFitting=1;fontFamily=Architects Daughter;fontSource=https%3A%2F%2Ffonts.googleapis.com%2Fcss%3Ffamily%3DArchitects%2BDaughter;fontSize=20;" vertex="1" parent="NRnPQJfiNj6VPtT8dH83-2">
                    <mxGeometry x="50" y="880" width="180" height="400" as="geometry"/>
                </mxCell>
                <mxCell id="NRnPQJfiNj6VPtT8dH83-31" value="" style="group" vertex="1" connectable="0" parent="NRnPQJfiNj6VPtT8dH83-2">
                    <mxGeometry x="240" y="840" width="265" height="190" as="geometry"/>
                </mxCell>
                <mxCell id="NRnPQJfiNj6VPtT8dH83-32" value="" style="rounded=1;whiteSpace=wrap;html=1;sketch=1;hachureGap=4;jiggle=2;curveFitting=1;fontFamily=Architects Daughter;fontSource=https%3A%2F%2Ffonts.googleapis.com%2Fcss%3Ffamily%3DArchitects%2BDaughter;fontSize=20;" vertex="1" parent="NRnPQJfiNj6VPtT8dH83-31">
                    <mxGeometry width="265" height="190" as="geometry"/>
                </mxCell>
                <mxCell id="NRnPQJfiNj6VPtT8dH83-33" value="Khối ngành A" style="text;html=1;strokeColor=none;fillColor=none;align=center;verticalAlign=middle;whiteSpace=wrap;rounded=0;sketch=1;hachureGap=4;jiggle=2;curveFitting=1;fontFamily=Architects Daughter;fontSource=https%3A%2F%2Ffonts.googleapis.com%2Fcss%3Ffamily%3DArchitects%2BDaughter;fontSize=20;" vertex="1" parent="NRnPQJfiNj6VPtT8dH83-31">
                    <mxGeometry x="17.666666666666664" y="5.816326530612245" width="123.66666666666666" height="29.081632653061224" as="geometry"/>
                </mxCell>
                <mxCell id="NRnPQJfiNj6VPtT8dH83-34" value="" style="endArrow=none;html=1;sketch=1;hachureGap=4;jiggle=2;curveFitting=1;fontFamily=Architects Daughter;fontSource=https%3A%2F%2Ffonts.googleapis.com%2Fcss%3Ffamily%3DArchitects%2BDaughter;fontSize=16;strokeColor=default;" edge="1" parent="NRnPQJfiNj6VPtT8dH83-31">
                    <mxGeometry width="50" height="50" relative="1" as="geometry">
                        <mxPoint x="22.083333333333332" y="34.89795918367347" as="sourcePoint"/>
                        <mxPoint x="242.91666666666666" y="34.89795918367347" as="targetPoint"/>
                    </mxGeometry>
                </mxCell>
                <mxCell id="NRnPQJfiNj6VPtT8dH83-35" value="&lt;ul&gt;&lt;li&gt;Ngành 1&lt;/li&gt;&lt;li&gt;Ngành 2&lt;/li&gt;&lt;li&gt;Ngành 3&lt;/li&gt;&lt;/ul&gt;" style="text;strokeColor=none;fillColor=none;html=1;whiteSpace=wrap;verticalAlign=middle;overflow=hidden;sketch=1;hachureGap=4;jiggle=2;curveFitting=1;fontFamily=Architects Daughter;fontSource=https%3A%2F%2Ffonts.googleapis.com%2Fcss%3Ffamily%3DArchitects%2BDaughter;fontSize=20;" vertex="1" parent="NRnPQJfiNj6VPtT8dH83-31">
                    <mxGeometry x="17.666666666666664" y="34.89795918367347" width="128.08333333333334" height="126.0204081632653" as="geometry"/>
                </mxCell>
                <UserObject label="Xem thêm" link="https://www.draw.io" id="NRnPQJfiNj6VPtT8dH83-36">
                    <mxCell style="text;html=1;strokeColor=none;fillColor=none;whiteSpace=wrap;align=center;verticalAlign=middle;fontColor=#0000EE;fontStyle=4;sketch=1;hachureGap=4;jiggle=2;curveFitting=1;fontFamily=Architects Daughter;fontSource=https%3A%2F%2Ffonts.googleapis.com%2Fcss%3Ffamily%3DArchitects%2BDaughter;fontSize=20;" vertex="1" parent="NRnPQJfiNj6VPtT8dH83-31">
                        <mxGeometry x="35.33333333333333" y="141.53061224489795" width="106" height="38.775510204081634" as="geometry"/>
                    </mxCell>
                </UserObject>
                <mxCell id="NRnPQJfiNj6VPtT8dH83-37" value="" style="group" vertex="1" connectable="0" parent="NRnPQJfiNj6VPtT8dH83-2">
                    <mxGeometry x="537.5" y="840" width="265" height="190" as="geometry"/>
                </mxCell>
                <mxCell id="NRnPQJfiNj6VPtT8dH83-38" value="" style="rounded=1;whiteSpace=wrap;html=1;sketch=1;hachureGap=4;jiggle=2;curveFitting=1;fontFamily=Architects Daughter;fontSource=https%3A%2F%2Ffonts.googleapis.com%2Fcss%3Ffamily%3DArchitects%2BDaughter;fontSize=20;" vertex="1" parent="NRnPQJfiNj6VPtT8dH83-37">
                    <mxGeometry width="265" height="190" as="geometry"/>
                </mxCell>
                <mxCell id="NRnPQJfiNj6VPtT8dH83-39" value="Khối ngành A" style="text;html=1;strokeColor=none;fillColor=none;align=center;verticalAlign=middle;whiteSpace=wrap;rounded=0;sketch=1;hachureGap=4;jiggle=2;curveFitting=1;fontFamily=Architects Daughter;fontSource=https%3A%2F%2Ffonts.googleapis.com%2Fcss%3Ffamily%3DArchitects%2BDaughter;fontSize=20;" vertex="1" parent="NRnPQJfiNj6VPtT8dH83-37">
                    <mxGeometry x="17.666666666666664" y="5.816326530612245" width="123.66666666666666" height="29.081632653061224" as="geometry"/>
                </mxCell>
                <mxCell id="NRnPQJfiNj6VPtT8dH83-40" value="" style="endArrow=none;html=1;sketch=1;hachureGap=4;jiggle=2;curveFitting=1;fontFamily=Architects Daughter;fontSource=https%3A%2F%2Ffonts.googleapis.com%2Fcss%3Ffamily%3DArchitects%2BDaughter;fontSize=16;strokeColor=default;" edge="1" parent="NRnPQJfiNj6VPtT8dH83-37">
                    <mxGeometry width="50" height="50" relative="1" as="geometry">
                        <mxPoint x="22.083333333333332" y="34.89795918367347" as="sourcePoint"/>
                        <mxPoint x="242.91666666666666" y="34.89795918367347" as="targetPoint"/>
                    </mxGeometry>
                </mxCell>
                <mxCell id="NRnPQJfiNj6VPtT8dH83-41" value="&lt;ul&gt;&lt;li&gt;Ngành 1&lt;/li&gt;&lt;li&gt;Ngành 2&lt;/li&gt;&lt;li&gt;Ngành 3&lt;/li&gt;&lt;/ul&gt;" style="text;strokeColor=none;fillColor=none;html=1;whiteSpace=wrap;verticalAlign=middle;overflow=hidden;sketch=1;hachureGap=4;jiggle=2;curveFitting=1;fontFamily=Architects Daughter;fontSource=https%3A%2F%2Ffonts.googleapis.com%2Fcss%3Ffamily%3DArchitects%2BDaughter;fontSize=20;" vertex="1" parent="NRnPQJfiNj6VPtT8dH83-37">
                    <mxGeometry x="17.666666666666664" y="34.89795918367347" width="128.08333333333334" height="126.0204081632653" as="geometry"/>
                </mxCell>
                <UserObject label="Xem thêm" link="https://www.draw.io" id="NRnPQJfiNj6VPtT8dH83-42">
                    <mxCell style="text;html=1;strokeColor=none;fillColor=none;whiteSpace=wrap;align=center;verticalAlign=middle;fontColor=#0000EE;fontStyle=4;sketch=1;hachureGap=4;jiggle=2;curveFitting=1;fontFamily=Architects Daughter;fontSource=https%3A%2F%2Ffonts.googleapis.com%2Fcss%3Ffamily%3DArchitects%2BDaughter;fontSize=20;" vertex="1" parent="NRnPQJfiNj6VPtT8dH83-37">
                        <mxGeometry x="35.33333333333333" y="141.53061224489795" width="106" height="38.775510204081634" as="geometry"/>
                    </mxCell>
                </UserObject>
                <mxCell id="NRnPQJfiNj6VPtT8dH83-43" value="" style="group" vertex="1" connectable="0" parent="NRnPQJfiNj6VPtT8dH83-2">
                    <mxGeometry x="240" y="1060" width="265" height="190" as="geometry"/>
                </mxCell>
                <mxCell id="NRnPQJfiNj6VPtT8dH83-44" value="" style="rounded=1;whiteSpace=wrap;html=1;sketch=1;hachureGap=4;jiggle=2;curveFitting=1;fontFamily=Architects Daughter;fontSource=https%3A%2F%2Ffonts.googleapis.com%2Fcss%3Ffamily%3DArchitects%2BDaughter;fontSize=20;" vertex="1" parent="NRnPQJfiNj6VPtT8dH83-43">
                    <mxGeometry width="265" height="190" as="geometry"/>
                </mxCell>
                <mxCell id="NRnPQJfiNj6VPtT8dH83-45" value="Khối ngành A" style="text;html=1;strokeColor=none;fillColor=none;align=center;verticalAlign=middle;whiteSpace=wrap;rounded=0;sketch=1;hachureGap=4;jiggle=2;curveFitting=1;fontFamily=Architects Daughter;fontSource=https%3A%2F%2Ffonts.googleapis.com%2Fcss%3Ffamily%3DArchitects%2BDaughter;fontSize=20;" vertex="1" parent="NRnPQJfiNj6VPtT8dH83-43">
                    <mxGeometry x="17.666666666666664" y="5.816326530612245" width="123.66666666666666" height="29.081632653061224" as="geometry"/>
                </mxCell>
                <mxCell id="NRnPQJfiNj6VPtT8dH83-46" value="" style="endArrow=none;html=1;sketch=1;hachureGap=4;jiggle=2;curveFitting=1;fontFamily=Architects Daughter;fontSource=https%3A%2F%2Ffonts.googleapis.com%2Fcss%3Ffamily%3DArchitects%2BDaughter;fontSize=16;strokeColor=default;" edge="1" parent="NRnPQJfiNj6VPtT8dH83-43">
                    <mxGeometry width="50" height="50" relative="1" as="geometry">
                        <mxPoint x="22.083333333333332" y="34.89795918367347" as="sourcePoint"/>
                        <mxPoint x="242.91666666666666" y="34.89795918367347" as="targetPoint"/>
                    </mxGeometry>
                </mxCell>
                <mxCell id="NRnPQJfiNj6VPtT8dH83-47" value="&lt;ul&gt;&lt;li&gt;Ngành 1&lt;/li&gt;&lt;li&gt;Ngành 2&lt;/li&gt;&lt;li&gt;Ngành 3&lt;/li&gt;&lt;/ul&gt;" style="text;strokeColor=none;fillColor=none;html=1;whiteSpace=wrap;verticalAlign=middle;overflow=hidden;sketch=1;hachureGap=4;jiggle=2;curveFitting=1;fontFamily=Architects Daughter;fontSource=https%3A%2F%2Ffonts.googleapis.com%2Fcss%3Ffamily%3DArchitects%2BDaughter;fontSize=20;" vertex="1" parent="NRnPQJfiNj6VPtT8dH83-43">
                    <mxGeometry x="17.666666666666664" y="34.89795918367347" width="128.08333333333334" height="126.0204081632653" as="geometry"/>
                </mxCell>
                <UserObject label="Xem thêm" link="https://www.draw.io" id="NRnPQJfiNj6VPtT8dH83-48">
                    <mxCell style="text;html=1;strokeColor=none;fillColor=none;whiteSpace=wrap;align=center;verticalAlign=middle;fontColor=#0000EE;fontStyle=4;sketch=1;hachureGap=4;jiggle=2;curveFitting=1;fontFamily=Architects Daughter;fontSource=https%3A%2F%2Ffonts.googleapis.com%2Fcss%3Ffamily%3DArchitects%2BDaughter;fontSize=20;" vertex="1" parent="NRnPQJfiNj6VPtT8dH83-43">
                        <mxGeometry x="35.33333333333333" y="141.53061224489795" width="106" height="38.775510204081634" as="geometry"/>
                    </mxCell>
                </UserObject>
                <mxCell id="NRnPQJfiNj6VPtT8dH83-49" value="" style="group" vertex="1" connectable="0" parent="NRnPQJfiNj6VPtT8dH83-2">
                    <mxGeometry x="537.5" y="1070" width="265" height="190" as="geometry"/>
                </mxCell>
                <mxCell id="NRnPQJfiNj6VPtT8dH83-50" value="" style="rounded=1;whiteSpace=wrap;html=1;sketch=1;hachureGap=4;jiggle=2;curveFitting=1;fontFamily=Architects Daughter;fontSource=https%3A%2F%2Ffonts.googleapis.com%2Fcss%3Ffamily%3DArchitects%2BDaughter;fontSize=20;" vertex="1" parent="NRnPQJfiNj6VPtT8dH83-49">
                    <mxGeometry width="265" height="190" as="geometry"/>
                </mxCell>
                <mxCell id="NRnPQJfiNj6VPtT8dH83-51" value="Khối ngành A" style="text;html=1;strokeColor=none;fillColor=none;align=center;verticalAlign=middle;whiteSpace=wrap;rounded=0;sketch=1;hachureGap=4;jiggle=2;curveFitting=1;fontFamily=Architects Daughter;fontSource=https%3A%2F%2Ffonts.googleapis.com%2Fcss%3Ffamily%3DArchitects%2BDaughter;fontSize=20;" vertex="1" parent="NRnPQJfiNj6VPtT8dH83-49">
                    <mxGeometry x="17.666666666666664" y="5.816326530612245" width="123.66666666666666" height="29.081632653061224" as="geometry"/>
                </mxCell>
                <mxCell id="NRnPQJfiNj6VPtT8dH83-52" value="" style="endArrow=none;html=1;sketch=1;hachureGap=4;jiggle=2;curveFitting=1;fontFamily=Architects Daughter;fontSource=https%3A%2F%2Ffonts.googleapis.com%2Fcss%3Ffamily%3DArchitects%2BDaughter;fontSize=16;strokeColor=default;" edge="1" parent="NRnPQJfiNj6VPtT8dH83-49">
                    <mxGeometry width="50" height="50" relative="1" as="geometry">
                        <mxPoint x="22.083333333333332" y="34.89795918367347" as="sourcePoint"/>
                        <mxPoint x="242.91666666666666" y="34.89795918367347" as="targetPoint"/>
                    </mxGeometry>
                </mxCell>
                <mxCell id="NRnPQJfiNj6VPtT8dH83-53" value="&lt;ul&gt;&lt;li&gt;Ngành 1&lt;/li&gt;&lt;li&gt;Ngành 2&lt;/li&gt;&lt;li&gt;Ngành 3&lt;/li&gt;&lt;/ul&gt;" style="text;strokeColor=none;fillColor=none;html=1;whiteSpace=wrap;verticalAlign=middle;overflow=hidden;sketch=1;hachureGap=4;jiggle=2;curveFitting=1;fontFamily=Architects Daughter;fontSource=https%3A%2F%2Ffonts.googleapis.com%2Fcss%3Ffamily%3DArchitects%2BDaughter;fontSize=20;" vertex="1" parent="NRnPQJfiNj6VPtT8dH83-49">
                    <mxGeometry x="17.666666666666664" y="34.89795918367347" width="128.08333333333334" height="126.0204081632653" as="geometry"/>
                </mxCell>
                <UserObject label="Xem thêm" link="https://www.draw.io" id="NRnPQJfiNj6VPtT8dH83-54">
                    <mxCell style="text;html=1;strokeColor=none;fillColor=none;whiteSpace=wrap;align=center;verticalAlign=middle;fontColor=#0000EE;fontStyle=4;sketch=1;hachureGap=4;jiggle=2;curveFitting=1;fontFamily=Architects Daughter;fontSource=https%3A%2F%2Ffonts.googleapis.com%2Fcss%3Ffamily%3DArchitects%2BDaughter;fontSize=20;" vertex="1" parent="NRnPQJfiNj6VPtT8dH83-49">
                        <mxGeometry x="35.33333333333333" y="141.53061224489795" width="106" height="38.775510204081634" as="geometry"/>
                    </mxCell>
                </UserObject>
                <mxCell id="NRnPQJfiNj6VPtT8dH83-55" value="" style="group" vertex="1" connectable="0" parent="NRnPQJfiNj6VPtT8dH83-2">
                    <mxGeometry x="5" y="1360" width="840" height="96" as="geometry"/>
                </mxCell>
                <mxCell id="NRnPQJfiNj6VPtT8dH83-56" value="" style="verticalLabelPosition=bottom;shadow=0;dashed=0;align=center;html=1;verticalAlign=top;strokeWidth=1;shape=mxgraph.mockup.graphics.simpleIcon;strokeColor=#999999;sketch=1;hachureGap=4;jiggle=2;curveFitting=1;fontFamily=Architects Daughter;fontSource=https%3A%2F%2Ffonts.googleapis.com%2Fcss%3Ffamily%3DArchitects%2BDaughter;fontSize=20;" vertex="1" parent="NRnPQJfiNj6VPtT8dH83-55">
                    <mxGeometry width="840" height="96" as="geometry"/>
                </mxCell>
                <mxCell id="NRnPQJfiNj6VPtT8dH83-57" value="Footer" style="text;html=1;strokeColor=none;fillColor=none;align=center;verticalAlign=middle;whiteSpace=wrap;rounded=0;sketch=1;hachureGap=4;jiggle=2;curveFitting=1;fontFamily=Architects Daughter;fontSource=https%3A%2F%2Ffonts.googleapis.com%2Fcss%3Ffamily%3DArchitects%2BDaughter;fontSize=20;" vertex="1" parent="NRnPQJfiNj6VPtT8dH83-55">
                    <mxGeometry x="227.5" y="33" width="385" height="30" as="geometry"/>
                </mxCell>
                <mxCell id="NRnPQJfiNj6VPtT8dH83-64" value="" style="group" vertex="1" connectable="0" parent="NRnPQJfiNj6VPtT8dH83-2">
                    <mxGeometry x="50" y="570" width="740" height="40" as="geometry"/>
                </mxCell>
                <mxCell id="NRnPQJfiNj6VPtT8dH83-65" value="A" style="ellipse;whiteSpace=wrap;html=1;sketch=1;hachureGap=4;jiggle=2;curveFitting=1;fontFamily=Architects Daughter;fontSource=https%3A%2F%2Ffonts.googleapis.com%2Fcss%3Ffamily%3DArchitects%2BDaughter;fontSize=20;" vertex="1" parent="NRnPQJfiNj6VPtT8dH83-64">
                    <mxGeometry x="150" width="40" height="40" as="geometry"/>
                </mxCell>
                <mxCell id="NRnPQJfiNj6VPtT8dH83-66" value="B" style="ellipse;whiteSpace=wrap;html=1;sketch=1;hachureGap=4;jiggle=2;curveFitting=1;fontFamily=Architects Daughter;fontSource=https%3A%2F%2Ffonts.googleapis.com%2Fcss%3Ffamily%3DArchitects%2BDaughter;fontSize=20;" vertex="1" parent="NRnPQJfiNj6VPtT8dH83-64">
                    <mxGeometry x="210" width="40" height="40" as="geometry"/>
                </mxCell>
                <mxCell id="NRnPQJfiNj6VPtT8dH83-67" value="C" style="ellipse;whiteSpace=wrap;html=1;sketch=1;hachureGap=4;jiggle=2;curveFitting=1;fontFamily=Architects Daughter;fontSource=https%3A%2F%2Ffonts.googleapis.com%2Fcss%3Ffamily%3DArchitects%2BDaughter;fontSize=20;" vertex="1" parent="NRnPQJfiNj6VPtT8dH83-64">
                    <mxGeometry x="270" width="40" height="40" as="geometry"/>
                </mxCell>
                <mxCell id="NRnPQJfiNj6VPtT8dH83-68" value="" style="ellipse;whiteSpace=wrap;html=1;sketch=1;hachureGap=4;jiggle=2;curveFitting=1;fontFamily=Architects Daughter;fontSource=https%3A%2F%2Ffonts.googleapis.com%2Fcss%3Ffamily%3DArchitects%2BDaughter;fontSize=20;" vertex="1" parent="NRnPQJfiNj6VPtT8dH83-64">
                    <mxGeometry x="400" y="10" width="20" height="20" as="geometry"/>
                </mxCell>
                <mxCell id="NRnPQJfiNj6VPtT8dH83-69" value="Z" style="ellipse;whiteSpace=wrap;html=1;sketch=1;hachureGap=4;jiggle=2;curveFitting=1;fontFamily=Architects Daughter;fontSource=https%3A%2F%2Ffonts.googleapis.com%2Fcss%3Ffamily%3DArchitects%2BDaughter;fontSize=20;" vertex="1" parent="NRnPQJfiNj6VPtT8dH83-64">
                    <mxGeometry x="600" width="40" height="40" as="geometry"/>
                </mxCell>
                <mxCell id="NRnPQJfiNj6VPtT8dH83-70" value="Tất cả" style="text;html=1;strokeColor=none;fillColor=none;align=center;verticalAlign=middle;whiteSpace=wrap;rounded=0;sketch=1;hachureGap=4;jiggle=2;curveFitting=1;fontFamily=Architects Daughter;fontSource=https%3A%2F%2Ffonts.googleapis.com%2Fcss%3Ffamily%3DArchitects%2BDaughter;fontSize=20;" vertex="1" parent="NRnPQJfiNj6VPtT8dH83-64">
                    <mxGeometry x="650" y="5" width="90" height="30" as="geometry"/>
                </mxCell>
                <mxCell id="NRnPQJfiNj6VPtT8dH83-71" value="" style="ellipse;whiteSpace=wrap;html=1;sketch=1;hachureGap=4;jiggle=2;curveFitting=1;fontFamily=Architects Daughter;fontSource=https%3A%2F%2Ffonts.googleapis.com%2Fcss%3Ffamily%3DArchitects%2BDaughter;fontSize=20;" vertex="1" parent="NRnPQJfiNj6VPtT8dH83-64">
                    <mxGeometry x="450" y="10" width="20" height="20" as="geometry"/>
                </mxCell>
                <mxCell id="NRnPQJfiNj6VPtT8dH83-72" value="" style="ellipse;whiteSpace=wrap;html=1;sketch=1;hachureGap=4;jiggle=2;curveFitting=1;fontFamily=Architects Daughter;fontSource=https%3A%2F%2Ffonts.googleapis.com%2Fcss%3Ffamily%3DArchitects%2BDaughter;fontSize=20;" vertex="1" parent="NRnPQJfiNj6VPtT8dH83-64">
                    <mxGeometry x="500" y="10" width="20" height="20" as="geometry"/>
                </mxCell>
                <mxCell id="NRnPQJfiNj6VPtT8dH83-73" value="" style="ellipse;whiteSpace=wrap;html=1;sketch=1;hachureGap=4;jiggle=2;curveFitting=1;fontFamily=Architects Daughter;fontSource=https%3A%2F%2Ffonts.googleapis.com%2Fcss%3Ffamily%3DArchitects%2BDaughter;fontSize=20;" vertex="1" parent="NRnPQJfiNj6VPtT8dH83-64">
                    <mxGeometry x="550" y="10" width="20" height="20" as="geometry"/>
                </mxCell>
                <mxCell id="NRnPQJfiNj6VPtT8dH83-74" value="Ngành nghề" style="text;html=1;strokeColor=none;fillColor=none;align=center;verticalAlign=middle;whiteSpace=wrap;rounded=0;sketch=1;hachureGap=4;jiggle=2;curveFitting=1;fontFamily=Architects Daughter;fontSource=https%3A%2F%2Ffonts.googleapis.com%2Fcss%3Ffamily%3DArchitects%2BDaughter;fontSize=20;" vertex="1" parent="NRnPQJfiNj6VPtT8dH83-64">
                    <mxGeometry width="130" height="30" as="geometry"/>
                </mxCell>
                <mxCell id="NRnPQJfiNj6VPtT8dH83-75" value="" style="ellipse;whiteSpace=wrap;html=1;sketch=1;hachureGap=4;jiggle=2;curveFitting=1;fontFamily=Architects Daughter;fontSource=https%3A%2F%2Ffonts.googleapis.com%2Fcss%3Ffamily%3DArchitects%2BDaughter;fontSize=20;" vertex="1" parent="NRnPQJfiNj6VPtT8dH83-64">
                    <mxGeometry x="360" y="15" width="20" height="20" as="geometry"/>
                </mxCell>
                <mxCell id="NRnPQJfiNj6VPtT8dH83-76" value="" style="ellipse;whiteSpace=wrap;html=1;sketch=1;hachureGap=4;jiggle=2;curveFitting=1;fontFamily=Architects Daughter;fontSource=https%3A%2F%2Ffonts.googleapis.com%2Fcss%3Ffamily%3DArchitects%2BDaughter;fontSize=20;" vertex="1" parent="NRnPQJfiNj6VPtT8dH83-64">
                    <mxGeometry x="330" y="15" width="20" height="20" as="geometry"/>
                </mxCell>
                <mxCell id="NRnPQJfiNj6VPtT8dH83-77" value="" style="group" vertex="1" connectable="0" parent="NRnPQJfiNj6VPtT8dH83-2">
                    <mxGeometry x="55" y="1290" width="740" height="40" as="geometry"/>
                </mxCell>
                <mxCell id="NRnPQJfiNj6VPtT8dH83-78" value="A" style="ellipse;whiteSpace=wrap;html=1;sketch=1;hachureGap=4;jiggle=2;curveFitting=1;fontFamily=Architects Daughter;fontSource=https%3A%2F%2Ffonts.googleapis.com%2Fcss%3Ffamily%3DArchitects%2BDaughter;fontSize=20;" vertex="1" parent="NRnPQJfiNj6VPtT8dH83-77">
                    <mxGeometry x="150" width="40" height="40" as="geometry"/>
                </mxCell>
                <mxCell id="NRnPQJfiNj6VPtT8dH83-79" value="B" style="ellipse;whiteSpace=wrap;html=1;sketch=1;hachureGap=4;jiggle=2;curveFitting=1;fontFamily=Architects Daughter;fontSource=https%3A%2F%2Ffonts.googleapis.com%2Fcss%3Ffamily%3DArchitects%2BDaughter;fontSize=20;" vertex="1" parent="NRnPQJfiNj6VPtT8dH83-77">
                    <mxGeometry x="210" width="40" height="40" as="geometry"/>
                </mxCell>
                <mxCell id="NRnPQJfiNj6VPtT8dH83-80" value="C" style="ellipse;whiteSpace=wrap;html=1;sketch=1;hachureGap=4;jiggle=2;curveFitting=1;fontFamily=Architects Daughter;fontSource=https%3A%2F%2Ffonts.googleapis.com%2Fcss%3Ffamily%3DArchitects%2BDaughter;fontSize=20;" vertex="1" parent="NRnPQJfiNj6VPtT8dH83-77">
                    <mxGeometry x="270" width="40" height="40" as="geometry"/>
                </mxCell>
                <mxCell id="NRnPQJfiNj6VPtT8dH83-81" value="" style="ellipse;whiteSpace=wrap;html=1;sketch=1;hachureGap=4;jiggle=2;curveFitting=1;fontFamily=Architects Daughter;fontSource=https%3A%2F%2Ffonts.googleapis.com%2Fcss%3Ffamily%3DArchitects%2BDaughter;fontSize=20;" vertex="1" parent="NRnPQJfiNj6VPtT8dH83-77">
                    <mxGeometry x="400" y="10" width="20" height="20" as="geometry"/>
                </mxCell>
                <mxCell id="NRnPQJfiNj6VPtT8dH83-82" value="Z" style="ellipse;whiteSpace=wrap;html=1;sketch=1;hachureGap=4;jiggle=2;curveFitting=1;fontFamily=Architects Daughter;fontSource=https%3A%2F%2Ffonts.googleapis.com%2Fcss%3Ffamily%3DArchitects%2BDaughter;fontSize=20;" vertex="1" parent="NRnPQJfiNj6VPtT8dH83-77">
                    <mxGeometry x="600" width="40" height="40" as="geometry"/>
                </mxCell>
                <mxCell id="NRnPQJfiNj6VPtT8dH83-83" value="Tất cả" style="text;html=1;strokeColor=none;fillColor=none;align=center;verticalAlign=middle;whiteSpace=wrap;rounded=0;sketch=1;hachureGap=4;jiggle=2;curveFitting=1;fontFamily=Architects Daughter;fontSource=https%3A%2F%2Ffonts.googleapis.com%2Fcss%3Ffamily%3DArchitects%2BDaughter;fontSize=20;" vertex="1" parent="NRnPQJfiNj6VPtT8dH83-77">
                    <mxGeometry x="650" y="5" width="90" height="30" as="geometry"/>
                </mxCell>
                <mxCell id="NRnPQJfiNj6VPtT8dH83-84" value="" style="ellipse;whiteSpace=wrap;html=1;sketch=1;hachureGap=4;jiggle=2;curveFitting=1;fontFamily=Architects Daughter;fontSource=https%3A%2F%2Ffonts.googleapis.com%2Fcss%3Ffamily%3DArchitects%2BDaughter;fontSize=20;" vertex="1" parent="NRnPQJfiNj6VPtT8dH83-77">
                    <mxGeometry x="450" y="10" width="20" height="20" as="geometry"/>
                </mxCell>
                <mxCell id="NRnPQJfiNj6VPtT8dH83-85" value="" style="ellipse;whiteSpace=wrap;html=1;sketch=1;hachureGap=4;jiggle=2;curveFitting=1;fontFamily=Architects Daughter;fontSource=https%3A%2F%2Ffonts.googleapis.com%2Fcss%3Ffamily%3DArchitects%2BDaughter;fontSize=20;" vertex="1" parent="NRnPQJfiNj6VPtT8dH83-77">
                    <mxGeometry x="500" y="10" width="20" height="20" as="geometry"/>
                </mxCell>
                <mxCell id="NRnPQJfiNj6VPtT8dH83-86" value="" style="ellipse;whiteSpace=wrap;html=1;sketch=1;hachureGap=4;jiggle=2;curveFitting=1;fontFamily=Architects Daughter;fontSource=https%3A%2F%2Ffonts.googleapis.com%2Fcss%3Ffamily%3DArchitects%2BDaughter;fontSize=20;" vertex="1" parent="NRnPQJfiNj6VPtT8dH83-77">
                    <mxGeometry x="550" y="10" width="20" height="20" as="geometry"/>
                </mxCell>
                <mxCell id="NRnPQJfiNj6VPtT8dH83-87" value="Ngành nghề" style="text;html=1;strokeColor=none;fillColor=none;align=center;verticalAlign=middle;whiteSpace=wrap;rounded=0;sketch=1;hachureGap=4;jiggle=2;curveFitting=1;fontFamily=Architects Daughter;fontSource=https%3A%2F%2Ffonts.googleapis.com%2Fcss%3Ffamily%3DArchitects%2BDaughter;fontSize=20;" vertex="1" parent="NRnPQJfiNj6VPtT8dH83-77">
                    <mxGeometry width="130" height="30" as="geometry"/>
                </mxCell>
                <mxCell id="NRnPQJfiNj6VPtT8dH83-88" value="" style="ellipse;whiteSpace=wrap;html=1;sketch=1;hachureGap=4;jiggle=2;curveFitting=1;fontFamily=Architects Daughter;fontSource=https%3A%2F%2Ffonts.googleapis.com%2Fcss%3Ffamily%3DArchitects%2BDaughter;fontSize=20;" vertex="1" parent="NRnPQJfiNj6VPtT8dH83-77">
                    <mxGeometry x="360" y="15" width="20" height="20" as="geometry"/>
                </mxCell>
                <mxCell id="NRnPQJfiNj6VPtT8dH83-89" value="" style="ellipse;whiteSpace=wrap;html=1;sketch=1;hachureGap=4;jiggle=2;curveFitting=1;fontFamily=Architects Daughter;fontSource=https%3A%2F%2Ffonts.googleapis.com%2Fcss%3Ffamily%3DArchitects%2BDaughter;fontSize=20;" vertex="1" parent="NRnPQJfiNj6VPtT8dH83-77">
                    <mxGeometry x="330" y="15" width="20" height="20" as="geometry"/>
                </mxCell>
                <mxCell id="fkJsdjZPH62dXRNqK8JY-0" value="" style="group;fontColor=default;verticalAlign=top;" vertex="1" connectable="0" parent="NRnPQJfiNj6VPtT8dH83-2">
                    <mxGeometry x="70" y="250" width="680" height="380" as="geometry"/>
                </mxCell>
                <mxCell id="fkJsdjZPH62dXRNqK8JY-1" value="" style="rounded=1;whiteSpace=wrap;html=1;sketch=1;hachureGap=4;jiggle=2;curveFitting=1;fontFamily=Architects Daughter;fontSource=https%3A%2F%2Ffonts.googleapis.com%2Fcss%3Ffamily%3DArchitects%2BDaughter;fontSize=20;" vertex="1" parent="fkJsdjZPH62dXRNqK8JY-0">
                    <mxGeometry width="641.6901408450703" height="80" as="geometry"/>
                </mxCell>
                <mxCell id="fkJsdjZPH62dXRNqK8JY-2" value="A" style="rounded=1;whiteSpace=wrap;html=1;sketch=1;hachureGap=4;jiggle=2;curveFitting=1;fontFamily=Architects Daughter;fontSource=https%3A%2F%2Ffonts.googleapis.com%2Fcss%3Ffamily%3DArchitects%2BDaughter;fontSize=20;align=left;" vertex="1" parent="fkJsdjZPH62dXRNqK8JY-0">
                    <mxGeometry x="16.59" y="13.33" width="293.41" height="53.33" as="geometry"/>
                </mxCell>
                <mxCell id="fkJsdjZPH62dXRNqK8JY-3" value="Ở đâu" style="text;html=1;strokeColor=none;fillColor=none;align=center;verticalAlign=middle;whiteSpace=wrap;rounded=0;sketch=1;hachureGap=4;jiggle=2;curveFitting=1;fontFamily=Architects Daughter;fontSource=https%3A%2F%2Ffonts.googleapis.com%2Fcss%3Ffamily%3DArchitects%2BDaughter;fontSize=20;" vertex="1" parent="fkJsdjZPH62dXRNqK8JY-0">
                    <mxGeometry x="330.00408450704225" y="26.66" width="57.46478873239436" height="26.67" as="geometry"/>
                </mxCell>
                <mxCell id="fkJsdjZPH62dXRNqK8JY-4" value="Search khu vực" style="rounded=1;whiteSpace=wrap;html=1;sketch=1;hachureGap=4;jiggle=2;curveFitting=1;fontFamily=Architects Daughter;fontSource=https%3A%2F%2Ffonts.googleapis.com%2Fcss%3Ffamily%3DArchitects%2BDaughter;fontSize=20;" vertex="1" parent="fkJsdjZPH62dXRNqK8JY-0">
                    <mxGeometry x="410" y="13.33" width="175.92" height="53.33" as="geometry"/>
                </mxCell>
                <mxCell id="fkJsdjZPH62dXRNqK8JY-5" value="" style="sketch=0;html=1;aspect=fixed;strokeColor=none;shadow=0;align=center;verticalAlign=top;fillColor=#3B8DF1;shape=mxgraph.gcp2.search;hachureGap=4;jiggle=2;curveFitting=1;fontFamily=Architects Daughter;fontSource=https%3A%2F%2Ffonts.googleapis.com%2Fcss%3Ffamily%3DArchitects%2BDaughter;fontSize=20;" vertex="1" parent="fkJsdjZPH62dXRNqK8JY-0">
                    <mxGeometry x="599.9981209206458" y="26.001111111111115" width="26.736917897629674" height="27.003778770182066" as="geometry"/>
                </mxCell>
                <mxCell id="fkJsdjZPH62dXRNqK8JY-8" value="" style="rounded=1;whiteSpace=wrap;html=1;sketch=1;hachureGap=4;jiggle=2;curveFitting=1;fontFamily=Architects Daughter;fontSource=https%3A%2F%2Ffonts.googleapis.com%2Fcss%3Ffamily%3DArchitects%2BDaughter;fontSize=20;align=left;" vertex="1" parent="fkJsdjZPH62dXRNqK8JY-0">
                    <mxGeometry x="16.59" y="53" width="293.41" height="257" as="geometry"/>
                </mxCell>
                <mxCell id="fkJsdjZPH62dXRNqK8JY-9" value="&lt;span style=&quot;background-color: initial; font-size: 21px;&quot;&gt;Ắc Quy&lt;br&gt;&lt;/span&gt;&lt;font style=&quot;font-size: 21px;&quot;&gt;Ablum ảnh&lt;br&gt;Ánh sáng&lt;br&gt;Áo mưa&lt;br&gt;Áo gió&lt;br&gt;o o o&lt;br&gt;&lt;/font&gt;" style="text;strokeColor=none;fillColor=none;html=1;whiteSpace=wrap;verticalAlign=top;overflow=hidden;labelBackgroundColor=none;sketch=1;hachureGap=4;jiggle=2;curveFitting=1;fontFamily=Architects Daughter;fontSource=https%3A%2F%2Ffonts.googleapis.com%2Fcss%3Ffamily%3DArchitects%2BDaughter;fontSize=30;fontColor=default;" vertex="1" parent="fkJsdjZPH62dXRNqK8JY-0">
                    <mxGeometry x="20" y="60" width="270" height="220" as="geometry"/>
                </mxCell>
                <mxCell id="NRnPQJfiNj6VPtT8dH83-90" value="&lt;font style=&quot;font-size: 38px;&quot;&gt;1. Homepage&lt;/font&gt;" style="text;html=1;strokeColor=none;fillColor=none;align=center;verticalAlign=middle;whiteSpace=wrap;rounded=0;sketch=1;hachureGap=4;jiggle=2;curveFitting=1;fontFamily=Architects Daughter;fontSource=https%3A%2F%2Ffonts.googleapis.com%2Fcss%3Ffamily%3DArchitects%2BDaughter;fontSize=35;" vertex="1" parent="NRnPQJfiNj6VPtT8dH83-1">
                    <mxGeometry x="470" y="30" width="220" height="30" as="geometry"/>
                </mxCell>
            </root>
        </mxGraphModel>
    </diagram>
    <diagram id="GXLkkB2TXs39goQq09ul" name="2. Danh sách ngành nghề">
        <mxGraphModel dx="2950" dy="1640" grid="1" gridSize="10" guides="1" tooltips="1" connect="1" arrows="1" fold="1" page="1" pageScale="1" pageWidth="1600" pageHeight="900" math="0" shadow="0">
            <root>
                <mxCell id="0"/>
                <mxCell id="1" parent="0"/>
                <mxCell id="2" value="" style="strokeWidth=1;shadow=0;dashed=0;align=center;html=1;shape=mxgraph.mockup.containers.browserWindow;rSize=0;strokeColor=#666666;strokeColor2=#008cff;strokeColor3=#c4c4c4;mainText=,;recursiveResize=0;hachureGap=4;fontFamily=Architects Daughter;fontSource=https%3A%2F%2Ffonts.googleapis.com%2Fcss%3Ffamily%3DArchitects%2BDaughter;fontSize=20;rounded=0;sketch=1;curveFitting=1;jiggle=2;" vertex="1" parent="1">
                    <mxGeometry x="160" y="90" width="840" height="1050" as="geometry"/>
                </mxCell>
                <mxCell id="3" value="Vendor dat...." style="strokeWidth=1;shadow=0;dashed=0;align=center;html=1;shape=mxgraph.mockup.containers.anchor;fontSize=17;fontColor=#666666;align=left;hachureGap=4;fontFamily=Architects Daughter;fontSource=https%3A%2F%2Ffonts.googleapis.com%2Fcss%3Ffamily%3DArchitects%2BDaughter;rounded=0;sketch=1;curveFitting=1;jiggle=2;" vertex="1" parent="2">
                    <mxGeometry x="60" y="12" width="110" height="26" as="geometry"/>
                </mxCell>
                <mxCell id="4" value="https://www.draw.io" style="strokeWidth=1;shadow=0;dashed=0;align=center;html=1;shape=mxgraph.mockup.containers.anchor;rSize=0;fontSize=17;fontColor=#666666;align=left;hachureGap=4;fontFamily=Architects Daughter;fontSource=https%3A%2F%2Ffonts.googleapis.com%2Fcss%3Ffamily%3DArchitects%2BDaughter;rounded=0;sketch=1;curveFitting=1;jiggle=2;" vertex="1" parent="2">
                    <mxGeometry x="130" y="60" width="250" height="26" as="geometry"/>
                </mxCell>
                <mxCell id="khigYjbJj0eySHl7Ggy7-29" value="" style="group" vertex="1" connectable="0" parent="2">
                    <mxGeometry x="32.5" y="240" width="680" height="80" as="geometry"/>
                </mxCell>
                <mxCell id="khigYjbJj0eySHl7Ggy7-30" value="" style="rounded=1;whiteSpace=wrap;html=1;sketch=1;hachureGap=4;jiggle=2;curveFitting=1;fontFamily=Architects Daughter;fontSource=https%3A%2F%2Ffonts.googleapis.com%2Fcss%3Ffamily%3DArchitects%2BDaughter;fontSize=20;" vertex="1" parent="khigYjbJj0eySHl7Ggy7-29">
                    <mxGeometry width="641.6901408450703" height="80" as="geometry"/>
                </mxCell>
                <mxCell id="khigYjbJj0eySHl7Ggy7-31" value="Search....." style="rounded=1;whiteSpace=wrap;html=1;sketch=1;hachureGap=4;jiggle=2;curveFitting=1;fontFamily=Architects Daughter;fontSource=https%3A%2F%2Ffonts.googleapis.com%2Fcss%3Ffamily%3DArchitects%2BDaughter;fontSize=20;" vertex="1" parent="khigYjbJj0eySHl7Ggy7-29">
                    <mxGeometry x="16.588169014084507" y="13.33" width="194.11605633802816" height="53.33" as="geometry"/>
                </mxCell>
                <mxCell id="khigYjbJj0eySHl7Ggy7-32" value="Ở đâu" style="text;html=1;strokeColor=none;fillColor=none;align=center;verticalAlign=middle;whiteSpace=wrap;rounded=0;sketch=1;hachureGap=4;jiggle=2;curveFitting=1;fontFamily=Architects Daughter;fontSource=https%3A%2F%2Ffonts.googleapis.com%2Fcss%3Ffamily%3DArchitects%2BDaughter;fontSize=20;" vertex="1" parent="khigYjbJj0eySHl7Ggy7-29">
                    <mxGeometry x="249.01408450704224" y="26.67" width="57.46478873239436" height="26.67" as="geometry"/>
                </mxCell>
                <mxCell id="khigYjbJj0eySHl7Ggy7-33" value="Search khu vực" style="rounded=1;whiteSpace=wrap;html=1;sketch=1;hachureGap=4;jiggle=2;curveFitting=1;fontFamily=Architects Daughter;fontSource=https%3A%2F%2Ffonts.googleapis.com%2Fcss%3Ffamily%3DArchitects%2BDaughter;fontSize=20;" vertex="1" parent="khigYjbJj0eySHl7Ggy7-29">
                    <mxGeometry x="348.29408450704227" y="13.33" width="197.62140845070422" height="53.33" as="geometry"/>
                </mxCell>
                <mxCell id="khigYjbJj0eySHl7Ggy7-34" value="" style="sketch=0;html=1;aspect=fixed;strokeColor=none;shadow=0;align=center;verticalAlign=top;fillColor=#3B8DF1;shape=mxgraph.gcp2.search;hachureGap=4;jiggle=2;curveFitting=1;fontFamily=Architects Daughter;fontSource=https%3A%2F%2Ffonts.googleapis.com%2Fcss%3Ffamily%3DArchitects%2BDaughter;fontSize=20;" vertex="1" parent="khigYjbJj0eySHl7Ggy7-29">
                    <mxGeometry x="574.6481209206457" y="25.911111111111115" width="26.736917897629674" height="27.003778770182066" as="geometry"/>
                </mxCell>
                <mxCell id="khigYjbJj0eySHl7Ggy7-36" value="" style="group" vertex="1" connectable="0" parent="2">
                    <mxGeometry x="50" y="400" width="740" height="40" as="geometry"/>
                </mxCell>
                <mxCell id="WhJboGXs4k-kKNRhjUsD-18" value="A" style="ellipse;whiteSpace=wrap;html=1;sketch=1;hachureGap=4;jiggle=2;curveFitting=1;fontFamily=Architects Daughter;fontSource=https%3A%2F%2Ffonts.googleapis.com%2Fcss%3Ffamily%3DArchitects%2BDaughter;fontSize=20;fillColor=#0050ef;fontColor=#ffffff;strokeColor=#001DBC;" vertex="1" parent="khigYjbJj0eySHl7Ggy7-36">
                    <mxGeometry x="150" width="40" height="40" as="geometry"/>
                </mxCell>
                <mxCell id="WhJboGXs4k-kKNRhjUsD-19" value="B" style="ellipse;whiteSpace=wrap;html=1;sketch=1;hachureGap=4;jiggle=2;curveFitting=1;fontFamily=Architects Daughter;fontSource=https%3A%2F%2Ffonts.googleapis.com%2Fcss%3Ffamily%3DArchitects%2BDaughter;fontSize=20;" vertex="1" parent="khigYjbJj0eySHl7Ggy7-36">
                    <mxGeometry x="210" width="40" height="40" as="geometry"/>
                </mxCell>
                <mxCell id="WhJboGXs4k-kKNRhjUsD-20" value="C" style="ellipse;whiteSpace=wrap;html=1;sketch=1;hachureGap=4;jiggle=2;curveFitting=1;fontFamily=Architects Daughter;fontSource=https%3A%2F%2Ffonts.googleapis.com%2Fcss%3Ffamily%3DArchitects%2BDaughter;fontSize=20;" vertex="1" parent="khigYjbJj0eySHl7Ggy7-36">
                    <mxGeometry x="270" width="40" height="40" as="geometry"/>
                </mxCell>
                <mxCell id="WhJboGXs4k-kKNRhjUsD-23" value="" style="ellipse;whiteSpace=wrap;html=1;sketch=1;hachureGap=4;jiggle=2;curveFitting=1;fontFamily=Architects Daughter;fontSource=https%3A%2F%2Ffonts.googleapis.com%2Fcss%3Ffamily%3DArchitects%2BDaughter;fontSize=20;" vertex="1" parent="khigYjbJj0eySHl7Ggy7-36">
                    <mxGeometry x="400" y="10" width="20" height="20" as="geometry"/>
                </mxCell>
                <mxCell id="WhJboGXs4k-kKNRhjUsD-24" value="Z" style="ellipse;whiteSpace=wrap;html=1;sketch=1;hachureGap=4;jiggle=2;curveFitting=1;fontFamily=Architects Daughter;fontSource=https%3A%2F%2Ffonts.googleapis.com%2Fcss%3Ffamily%3DArchitects%2BDaughter;fontSize=20;" vertex="1" parent="khigYjbJj0eySHl7Ggy7-36">
                    <mxGeometry x="600" width="40" height="40" as="geometry"/>
                </mxCell>
                <mxCell id="WhJboGXs4k-kKNRhjUsD-25" value="Tất cả" style="text;html=1;strokeColor=none;fillColor=none;align=center;verticalAlign=middle;whiteSpace=wrap;rounded=0;sketch=1;hachureGap=4;jiggle=2;curveFitting=1;fontFamily=Architects Daughter;fontSource=https%3A%2F%2Ffonts.googleapis.com%2Fcss%3Ffamily%3DArchitects%2BDaughter;fontSize=20;" vertex="1" parent="khigYjbJj0eySHl7Ggy7-36">
                    <mxGeometry x="650" y="5" width="90" height="30" as="geometry"/>
                </mxCell>
                <mxCell id="WhJboGXs4k-kKNRhjUsD-27" value="" style="ellipse;whiteSpace=wrap;html=1;sketch=1;hachureGap=4;jiggle=2;curveFitting=1;fontFamily=Architects Daughter;fontSource=https%3A%2F%2Ffonts.googleapis.com%2Fcss%3Ffamily%3DArchitects%2BDaughter;fontSize=20;" vertex="1" parent="khigYjbJj0eySHl7Ggy7-36">
                    <mxGeometry x="450" y="10" width="20" height="20" as="geometry"/>
                </mxCell>
                <mxCell id="WhJboGXs4k-kKNRhjUsD-28" value="" style="ellipse;whiteSpace=wrap;html=1;sketch=1;hachureGap=4;jiggle=2;curveFitting=1;fontFamily=Architects Daughter;fontSource=https%3A%2F%2Ffonts.googleapis.com%2Fcss%3Ffamily%3DArchitects%2BDaughter;fontSize=20;" vertex="1" parent="khigYjbJj0eySHl7Ggy7-36">
                    <mxGeometry x="500" y="10" width="20" height="20" as="geometry"/>
                </mxCell>
                <mxCell id="4uLghritG7yG7SS1Kkj_-17" value="" style="ellipse;whiteSpace=wrap;html=1;sketch=1;hachureGap=4;jiggle=2;curveFitting=1;fontFamily=Architects Daughter;fontSource=https%3A%2F%2Ffonts.googleapis.com%2Fcss%3Ffamily%3DArchitects%2BDaughter;fontSize=20;" vertex="1" parent="khigYjbJj0eySHl7Ggy7-36">
                    <mxGeometry x="550" y="10" width="20" height="20" as="geometry"/>
                </mxCell>
                <mxCell id="fO2KX8HX7qlMLWQIjVRf-48" value="Ngành nghề" style="text;html=1;strokeColor=none;fillColor=none;align=center;verticalAlign=middle;whiteSpace=wrap;rounded=0;sketch=1;hachureGap=4;jiggle=2;curveFitting=1;fontFamily=Architects Daughter;fontSource=https%3A%2F%2Ffonts.googleapis.com%2Fcss%3Ffamily%3DArchitects%2BDaughter;fontSize=20;" vertex="1" parent="khigYjbJj0eySHl7Ggy7-36">
                    <mxGeometry width="130" height="30" as="geometry"/>
                </mxCell>
                <mxCell id="fO2KX8HX7qlMLWQIjVRf-49" value="" style="ellipse;whiteSpace=wrap;html=1;sketch=1;hachureGap=4;jiggle=2;curveFitting=1;fontFamily=Architects Daughter;fontSource=https%3A%2F%2Ffonts.googleapis.com%2Fcss%3Ffamily%3DArchitects%2BDaughter;fontSize=20;" vertex="1" parent="khigYjbJj0eySHl7Ggy7-36">
                    <mxGeometry x="360" y="15" width="20" height="20" as="geometry"/>
                </mxCell>
                <mxCell id="fO2KX8HX7qlMLWQIjVRf-50" value="" style="ellipse;whiteSpace=wrap;html=1;sketch=1;hachureGap=4;jiggle=2;curveFitting=1;fontFamily=Architects Daughter;fontSource=https%3A%2F%2Ffonts.googleapis.com%2Fcss%3Ffamily%3DArchitects%2BDaughter;fontSize=20;" vertex="1" parent="khigYjbJj0eySHl7Ggy7-36">
                    <mxGeometry x="330" y="15" width="20" height="20" as="geometry"/>
                </mxCell>
                <mxCell id="khigYjbJj0eySHl7Ggy7-38" value="" style="group" vertex="1" connectable="0" parent="2">
                    <mxGeometry x="50" y="870" width="740" height="40" as="geometry"/>
                </mxCell>
                <mxCell id="khigYjbJj0eySHl7Ggy7-39" value="A" style="ellipse;whiteSpace=wrap;html=1;sketch=1;hachureGap=4;jiggle=2;curveFitting=1;fontFamily=Architects Daughter;fontSource=https%3A%2F%2Ffonts.googleapis.com%2Fcss%3Ffamily%3DArchitects%2BDaughter;fontSize=20;fillColor=#0050ef;fontColor=#ffffff;strokeColor=#001DBC;" vertex="1" parent="khigYjbJj0eySHl7Ggy7-38">
                    <mxGeometry x="150" width="40" height="40" as="geometry"/>
                </mxCell>
                <mxCell id="khigYjbJj0eySHl7Ggy7-40" value="B" style="ellipse;whiteSpace=wrap;html=1;sketch=1;hachureGap=4;jiggle=2;curveFitting=1;fontFamily=Architects Daughter;fontSource=https%3A%2F%2Ffonts.googleapis.com%2Fcss%3Ffamily%3DArchitects%2BDaughter;fontSize=20;" vertex="1" parent="khigYjbJj0eySHl7Ggy7-38">
                    <mxGeometry x="210" width="40" height="40" as="geometry"/>
                </mxCell>
                <mxCell id="khigYjbJj0eySHl7Ggy7-41" value="C" style="ellipse;whiteSpace=wrap;html=1;sketch=1;hachureGap=4;jiggle=2;curveFitting=1;fontFamily=Architects Daughter;fontSource=https%3A%2F%2Ffonts.googleapis.com%2Fcss%3Ffamily%3DArchitects%2BDaughter;fontSize=20;" vertex="1" parent="khigYjbJj0eySHl7Ggy7-38">
                    <mxGeometry x="270" width="40" height="40" as="geometry"/>
                </mxCell>
                <mxCell id="khigYjbJj0eySHl7Ggy7-42" value="" style="ellipse;whiteSpace=wrap;html=1;sketch=1;hachureGap=4;jiggle=2;curveFitting=1;fontFamily=Architects Daughter;fontSource=https%3A%2F%2Ffonts.googleapis.com%2Fcss%3Ffamily%3DArchitects%2BDaughter;fontSize=20;" vertex="1" parent="khigYjbJj0eySHl7Ggy7-38">
                    <mxGeometry x="400" y="10" width="20" height="20" as="geometry"/>
                </mxCell>
                <mxCell id="khigYjbJj0eySHl7Ggy7-43" value="Z" style="ellipse;whiteSpace=wrap;html=1;sketch=1;hachureGap=4;jiggle=2;curveFitting=1;fontFamily=Architects Daughter;fontSource=https%3A%2F%2Ffonts.googleapis.com%2Fcss%3Ffamily%3DArchitects%2BDaughter;fontSize=20;" vertex="1" parent="khigYjbJj0eySHl7Ggy7-38">
                    <mxGeometry x="600" width="40" height="40" as="geometry"/>
                </mxCell>
                <mxCell id="khigYjbJj0eySHl7Ggy7-44" value="Tất cả" style="text;html=1;strokeColor=none;fillColor=none;align=center;verticalAlign=middle;whiteSpace=wrap;rounded=0;sketch=1;hachureGap=4;jiggle=2;curveFitting=1;fontFamily=Architects Daughter;fontSource=https%3A%2F%2Ffonts.googleapis.com%2Fcss%3Ffamily%3DArchitects%2BDaughter;fontSize=20;" vertex="1" parent="khigYjbJj0eySHl7Ggy7-38">
                    <mxGeometry x="650" y="5" width="90" height="30" as="geometry"/>
                </mxCell>
                <mxCell id="khigYjbJj0eySHl7Ggy7-45" value="" style="ellipse;whiteSpace=wrap;html=1;sketch=1;hachureGap=4;jiggle=2;curveFitting=1;fontFamily=Architects Daughter;fontSource=https%3A%2F%2Ffonts.googleapis.com%2Fcss%3Ffamily%3DArchitects%2BDaughter;fontSize=20;" vertex="1" parent="khigYjbJj0eySHl7Ggy7-38">
                    <mxGeometry x="450" y="10" width="20" height="20" as="geometry"/>
                </mxCell>
                <mxCell id="khigYjbJj0eySHl7Ggy7-46" value="" style="ellipse;whiteSpace=wrap;html=1;sketch=1;hachureGap=4;jiggle=2;curveFitting=1;fontFamily=Architects Daughter;fontSource=https%3A%2F%2Ffonts.googleapis.com%2Fcss%3Ffamily%3DArchitects%2BDaughter;fontSize=20;" vertex="1" parent="khigYjbJj0eySHl7Ggy7-38">
                    <mxGeometry x="500" y="10" width="20" height="20" as="geometry"/>
                </mxCell>
                <mxCell id="khigYjbJj0eySHl7Ggy7-47" value="" style="ellipse;whiteSpace=wrap;html=1;sketch=1;hachureGap=4;jiggle=2;curveFitting=1;fontFamily=Architects Daughter;fontSource=https%3A%2F%2Ffonts.googleapis.com%2Fcss%3Ffamily%3DArchitects%2BDaughter;fontSize=20;" vertex="1" parent="khigYjbJj0eySHl7Ggy7-38">
                    <mxGeometry x="550" y="10" width="20" height="20" as="geometry"/>
                </mxCell>
                <mxCell id="khigYjbJj0eySHl7Ggy7-48" value="Nghề nghiệp" style="text;html=1;strokeColor=none;fillColor=none;align=center;verticalAlign=middle;whiteSpace=wrap;rounded=0;sketch=1;hachureGap=4;jiggle=2;curveFitting=1;fontFamily=Architects Daughter;fontSource=https%3A%2F%2Ffonts.googleapis.com%2Fcss%3Ffamily%3DArchitects%2BDaughter;fontSize=20;" vertex="1" parent="khigYjbJj0eySHl7Ggy7-38">
                    <mxGeometry width="130" height="30" as="geometry"/>
                </mxCell>
                <mxCell id="khigYjbJj0eySHl7Ggy7-49" value="" style="ellipse;whiteSpace=wrap;html=1;sketch=1;hachureGap=4;jiggle=2;curveFitting=1;fontFamily=Architects Daughter;fontSource=https%3A%2F%2Ffonts.googleapis.com%2Fcss%3Ffamily%3DArchitects%2BDaughter;fontSize=20;" vertex="1" parent="khigYjbJj0eySHl7Ggy7-38">
                    <mxGeometry x="360" y="15" width="20" height="20" as="geometry"/>
                </mxCell>
                <mxCell id="khigYjbJj0eySHl7Ggy7-50" value="" style="ellipse;whiteSpace=wrap;html=1;sketch=1;hachureGap=4;jiggle=2;curveFitting=1;fontFamily=Architects Daughter;fontSource=https%3A%2F%2Ffonts.googleapis.com%2Fcss%3Ffamily%3DArchitects%2BDaughter;fontSize=20;" vertex="1" parent="khigYjbJj0eySHl7Ggy7-38">
                    <mxGeometry x="330" y="15" width="20" height="20" as="geometry"/>
                </mxCell>
                <mxCell id="auzxhuakH_QhdjvaeuYf-4" value="" style="group" vertex="1" connectable="0" parent="2">
                    <mxGeometry y="110" width="840" height="96" as="geometry"/>
                </mxCell>
                <mxCell id="auzxhuakH_QhdjvaeuYf-5" value="" style="verticalLabelPosition=bottom;shadow=0;dashed=0;align=center;html=1;verticalAlign=top;strokeWidth=1;shape=mxgraph.mockup.graphics.simpleIcon;strokeColor=#999999;sketch=1;hachureGap=4;jiggle=2;curveFitting=1;fontFamily=Architects Daughter;fontSource=https%3A%2F%2Ffonts.googleapis.com%2Fcss%3Ffamily%3DArchitects%2BDaughter;fontSize=20;" vertex="1" parent="auzxhuakH_QhdjvaeuYf-4">
                    <mxGeometry width="840" height="96" as="geometry"/>
                </mxCell>
                <mxCell id="auzxhuakH_QhdjvaeuYf-6" value="Header" style="text;html=1;strokeColor=none;fillColor=none;align=center;verticalAlign=middle;whiteSpace=wrap;rounded=0;sketch=1;hachureGap=4;jiggle=2;curveFitting=1;fontFamily=Architects Daughter;fontSource=https%3A%2F%2Ffonts.googleapis.com%2Fcss%3Ffamily%3DArchitects%2BDaughter;fontSize=20;" vertex="1" parent="auzxhuakH_QhdjvaeuYf-4">
                    <mxGeometry x="227.5" y="33" width="385" height="30" as="geometry"/>
                </mxCell>
                <mxCell id="auzxhuakH_QhdjvaeuYf-8" value="&lt;font style=&quot;font-size: 30px;&quot;&gt;Danh sách nghành nghề&lt;/font&gt;" style="text;html=1;strokeColor=none;fillColor=none;align=center;verticalAlign=middle;whiteSpace=wrap;rounded=0;sketch=1;hachureGap=4;jiggle=2;curveFitting=1;fontFamily=Architects Daughter;fontSource=https%3A%2F%2Ffonts.googleapis.com%2Fcss%3Ffamily%3DArchitects%2BDaughter;fontSize=38;fontColor=#C9C9C9;" vertex="1" parent="2">
                    <mxGeometry x="32.5" y="345" width="347.5" height="30" as="geometry"/>
                </mxCell>
                <mxCell id="auzxhuakH_QhdjvaeuYf-9" value="" style="endArrow=none;html=1;sketch=1;hachureGap=4;jiggle=2;curveFitting=1;strokeColor=default;fontFamily=Architects Daughter;fontSource=https%3A%2F%2Ffonts.googleapis.com%2Fcss%3Ffamily%3DArchitects%2BDaughter;fontSize=38;fontColor=#C9C9C9;" edge="1" parent="2">
                    <mxGeometry width="50" height="50" relative="1" as="geometry">
                        <mxPoint x="800" y="390" as="sourcePoint"/>
                        <mxPoint x="40" y="390" as="targetPoint"/>
                    </mxGeometry>
                </mxCell>
                <mxCell id="0n44aUfqZC-XQ8ujG0g1-4" value="&lt;ul&gt;&lt;li&gt;Ắc quy (241)&lt;/li&gt;&lt;ul&gt;&lt;li&gt;Ngành 1 liên quan tới Ắc quy&amp;nbsp;(21)&lt;/li&gt;&lt;li&gt;Ngành 2 liên quan tới Ắc quy&amp;nbsp;(33)&amp;nbsp;&lt;/li&gt;&lt;/ul&gt;&lt;li&gt;A2 (1203)&lt;/li&gt;&lt;ul&gt;&lt;li&gt;Ngành 3 liên quan tới A2 (21)&lt;/li&gt;&lt;li&gt;Ngành 4 liên quan tới A2 (33)&lt;/li&gt;&lt;/ul&gt;&lt;li&gt;O O O&lt;/li&gt;&lt;/ul&gt;" style="text;strokeColor=none;fillColor=none;html=1;whiteSpace=wrap;verticalAlign=top;overflow=hidden;sketch=1;hachureGap=4;jiggle=2;curveFitting=1;fontFamily=Architects Daughter;fontSource=https%3A%2F%2Ffonts.googleapis.com%2Fcss%3Ffamily%3DArchitects%2BDaughter;fontSize=30;fontColor=#C9C9C9;" vertex="1" parent="2">
                    <mxGeometry x="40" y="460" width="760" height="390" as="geometry"/>
                </mxCell>
                <mxCell id="KUc8GZGhVw6iy03fxiHY-14" value="" style="endArrow=none;html=1;sketch=1;hachureGap=4;jiggle=2;curveFitting=1;strokeColor=default;fontFamily=Architects Daughter;fontSource=https%3A%2F%2Ffonts.googleapis.com%2Fcss%3Ffamily%3DArchitects%2BDaughter;fontSize=38;fontColor=#C9C9C9;" edge="1" parent="2">
                    <mxGeometry width="50" height="50" relative="1" as="geometry">
                        <mxPoint x="800" y="460" as="sourcePoint"/>
                        <mxPoint x="40" y="460" as="targetPoint"/>
                    </mxGeometry>
                </mxCell>
                <mxCell id="KUc8GZGhVw6iy03fxiHY-15" value="" style="endArrow=none;html=1;sketch=1;hachureGap=4;jiggle=2;curveFitting=1;strokeColor=default;fontFamily=Architects Daughter;fontSource=https%3A%2F%2Ffonts.googleapis.com%2Fcss%3Ffamily%3DArchitects%2BDaughter;fontSize=38;fontColor=#C9C9C9;" edge="1" parent="2">
                    <mxGeometry width="50" height="50" relative="1" as="geometry">
                        <mxPoint x="792.5" y="860" as="sourcePoint"/>
                        <mxPoint x="32.5" y="860" as="targetPoint"/>
                    </mxGeometry>
                </mxCell>
                <mxCell id="N2pnC9UHwVN0C1hzt3Pk-18" value="" style="group" vertex="1" connectable="0" parent="2">
                    <mxGeometry y="950" width="840" height="96" as="geometry"/>
                </mxCell>
                <mxCell id="OubkUsbaSXMRYBUK4LqK-18" value="" style="verticalLabelPosition=bottom;shadow=0;dashed=0;align=center;html=1;verticalAlign=top;strokeWidth=1;shape=mxgraph.mockup.graphics.simpleIcon;strokeColor=#999999;sketch=1;hachureGap=4;jiggle=2;curveFitting=1;fontFamily=Architects Daughter;fontSource=https%3A%2F%2Ffonts.googleapis.com%2Fcss%3Ffamily%3DArchitects%2BDaughter;fontSize=20;" vertex="1" parent="N2pnC9UHwVN0C1hzt3Pk-18">
                    <mxGeometry width="840" height="96" as="geometry"/>
                </mxCell>
                <mxCell id="OubkUsbaSXMRYBUK4LqK-19" value="Footer" style="text;html=1;strokeColor=none;fillColor=none;align=center;verticalAlign=middle;whiteSpace=wrap;rounded=0;sketch=1;hachureGap=4;jiggle=2;curveFitting=1;fontFamily=Architects Daughter;fontSource=https%3A%2F%2Ffonts.googleapis.com%2Fcss%3Ffamily%3DArchitects%2BDaughter;fontSize=20;" vertex="1" parent="N2pnC9UHwVN0C1hzt3Pk-18">
                    <mxGeometry x="227.5" y="33" width="385" height="30" as="geometry"/>
                </mxCell>
                <mxCell id="BWAxA3tUqoH37Ci6_wWd-106" value="&lt;span style=&quot;color: rgb(201, 201, 201); font-size: 30px;&quot;&gt;2. Danh sách nghành nghề&lt;/span&gt;" style="text;html=1;strokeColor=none;fillColor=none;align=center;verticalAlign=middle;whiteSpace=wrap;rounded=0;sketch=1;hachureGap=4;jiggle=2;curveFitting=1;fontFamily=Architects Daughter;fontSource=https%3A%2F%2Ffonts.googleapis.com%2Fcss%3Ffamily%3DArchitects%2BDaughter;fontSize=35;" vertex="1" parent="1">
                    <mxGeometry x="405" y="30" width="350" height="30" as="geometry"/>
                </mxCell>
                <mxCell id="KUc8GZGhVw6iy03fxiHY-4" value="" style="group" vertex="1" connectable="0" parent="1">
                    <mxGeometry x="210" y="900" width="530" height="40" as="geometry"/>
                </mxCell>
                <mxCell id="KUc8GZGhVw6iy03fxiHY-5" value="1" style="ellipse;whiteSpace=wrap;html=1;sketch=1;hachureGap=4;jiggle=2;curveFitting=1;fontFamily=Architects Daughter;fontSource=https%3A%2F%2Ffonts.googleapis.com%2Fcss%3Ffamily%3DArchitects%2BDaughter;fontSize=20;" vertex="1" parent="KUc8GZGhVw6iy03fxiHY-4">
                    <mxGeometry x="100" width="40" height="40" as="geometry"/>
                </mxCell>
                <mxCell id="KUc8GZGhVw6iy03fxiHY-6" value="2" style="ellipse;whiteSpace=wrap;html=1;sketch=1;hachureGap=4;jiggle=2;curveFitting=1;fontFamily=Architects Daughter;fontSource=https%3A%2F%2Ffonts.googleapis.com%2Fcss%3Ffamily%3DArchitects%2BDaughter;fontSize=20;fillColor=#0050ef;fontColor=#ffffff;strokeColor=#001DBC;" vertex="1" parent="KUc8GZGhVw6iy03fxiHY-4">
                    <mxGeometry x="150" width="40" height="40" as="geometry"/>
                </mxCell>
                <mxCell id="KUc8GZGhVw6iy03fxiHY-7" value="3" style="ellipse;whiteSpace=wrap;html=1;sketch=1;hachureGap=4;jiggle=2;curveFitting=1;fontFamily=Architects Daughter;fontSource=https%3A%2F%2Ffonts.googleapis.com%2Fcss%3Ffamily%3DArchitects%2BDaughter;fontSize=20;" vertex="1" parent="KUc8GZGhVw6iy03fxiHY-4">
                    <mxGeometry x="200" width="40" height="40" as="geometry"/>
                </mxCell>
                <mxCell id="KUc8GZGhVw6iy03fxiHY-8" value="" style="ellipse;whiteSpace=wrap;html=1;sketch=1;hachureGap=4;jiggle=2;curveFitting=1;fontFamily=Architects Daughter;fontSource=https%3A%2F%2Ffonts.googleapis.com%2Fcss%3Ffamily%3DArchitects%2BDaughter;fontSize=20;" vertex="1" parent="KUc8GZGhVw6iy03fxiHY-4">
                    <mxGeometry x="260" y="10" width="20" height="20" as="geometry"/>
                </mxCell>
                <mxCell id="KUc8GZGhVw6iy03fxiHY-9" value="" style="ellipse;whiteSpace=wrap;html=1;sketch=1;hachureGap=4;jiggle=2;curveFitting=1;fontFamily=Architects Daughter;fontSource=https%3A%2F%2Ffonts.googleapis.com%2Fcss%3Ffamily%3DArchitects%2BDaughter;fontSize=20;" vertex="1" parent="KUc8GZGhVw6iy03fxiHY-4">
                    <mxGeometry x="300" y="10" width="20" height="20" as="geometry"/>
                </mxCell>
                <mxCell id="KUc8GZGhVw6iy03fxiHY-10" value="" style="ellipse;whiteSpace=wrap;html=1;sketch=1;hachureGap=4;jiggle=2;curveFitting=1;fontFamily=Architects Daughter;fontSource=https%3A%2F%2Ffonts.googleapis.com%2Fcss%3Ffamily%3DArchitects%2BDaughter;fontSize=20;" vertex="1" parent="KUc8GZGhVw6iy03fxiHY-4">
                    <mxGeometry x="350" y="10" width="20" height="20" as="geometry"/>
                </mxCell>
                <mxCell id="KUc8GZGhVw6iy03fxiHY-11" value="99" style="ellipse;whiteSpace=wrap;html=1;sketch=1;hachureGap=4;jiggle=2;curveFitting=1;fontFamily=Architects Daughter;fontSource=https%3A%2F%2Ffonts.googleapis.com%2Fcss%3Ffamily%3DArchitects%2BDaughter;fontSize=20;" vertex="1" parent="KUc8GZGhVw6iy03fxiHY-4">
                    <mxGeometry x="390" width="40" height="40" as="geometry"/>
                </mxCell>
                <mxCell id="KUc8GZGhVw6iy03fxiHY-12" value="Sau" style="text;html=1;strokeColor=none;fillColor=none;align=center;verticalAlign=middle;whiteSpace=wrap;rounded=0;sketch=1;hachureGap=4;jiggle=2;curveFitting=1;fontFamily=Architects Daughter;fontSource=https%3A%2F%2Ffonts.googleapis.com%2Fcss%3Ffamily%3DArchitects%2BDaughter;fontSize=20;" vertex="1" parent="KUc8GZGhVw6iy03fxiHY-4">
                    <mxGeometry x="440" y="5" width="90" height="30" as="geometry"/>
                </mxCell>
                <mxCell id="KUc8GZGhVw6iy03fxiHY-13" value="Trước" style="text;html=1;strokeColor=none;fillColor=none;align=center;verticalAlign=middle;whiteSpace=wrap;rounded=0;sketch=1;hachureGap=4;jiggle=2;curveFitting=1;fontFamily=Architects Daughter;fontSource=https%3A%2F%2Ffonts.googleapis.com%2Fcss%3Ffamily%3DArchitects%2BDaughter;fontSize=20;" vertex="1" parent="KUc8GZGhVw6iy03fxiHY-4">
                    <mxGeometry y="10" width="90" height="30" as="geometry"/>
                </mxCell>
            </root>
        </mxGraphModel>
    </diagram>
    <diagram name="3. Chi tiết khối ngành" id="0tmsQtyx0CpKslxWtLUy">
        <mxGraphModel dx="2723" dy="1514" grid="1" gridSize="10" guides="1" tooltips="1" connect="1" arrows="1" fold="1" page="1" pageScale="1" pageWidth="1600" pageHeight="900" math="0" shadow="0">
            <root>
                <mxCell id="fP4WKbK4oEpIIap1OxGO-0"/>
                <mxCell id="fP4WKbK4oEpIIap1OxGO-1" parent="fP4WKbK4oEpIIap1OxGO-0"/>
                <mxCell id="fP4WKbK4oEpIIap1OxGO-2" value="" style="strokeWidth=1;shadow=0;dashed=0;align=center;html=1;shape=mxgraph.mockup.containers.browserWindow;rSize=0;strokeColor=#666666;strokeColor2=#008cff;strokeColor3=#c4c4c4;mainText=,;recursiveResize=0;hachureGap=4;fontFamily=Architects Daughter;fontSource=https%3A%2F%2Ffonts.googleapis.com%2Fcss%3Ffamily%3DArchitects%2BDaughter;fontSize=20;rounded=0;sketch=1;curveFitting=1;jiggle=2;" vertex="1" parent="fP4WKbK4oEpIIap1OxGO-1">
                    <mxGeometry x="160" y="90" width="1040" height="1850" as="geometry"/>
                </mxCell>
                <mxCell id="P0VNwjgwigmBZZAQr_-B-4" value="" style="rounded=0;whiteSpace=wrap;html=1;labelBackgroundColor=none;sketch=1;hachureGap=4;jiggle=2;curveFitting=1;fontFamily=Architects Daughter;fontSource=https%3A%2F%2Ffonts.googleapis.com%2Fcss%3Ffamily%3DArchitects%2BDaughter;fontSize=21;fontColor=default;fillColor=none;" vertex="1" parent="fP4WKbK4oEpIIap1OxGO-2">
                    <mxGeometry x="40" y="350" width="950" height="1350" as="geometry"/>
                </mxCell>
                <mxCell id="fP4WKbK4oEpIIap1OxGO-3" value="Vendor dat...." style="strokeWidth=1;shadow=0;dashed=0;align=center;html=1;shape=mxgraph.mockup.containers.anchor;fontSize=17;fontColor=#666666;align=left;hachureGap=4;fontFamily=Architects Daughter;fontSource=https%3A%2F%2Ffonts.googleapis.com%2Fcss%3Ffamily%3DArchitects%2BDaughter;rounded=0;sketch=1;curveFitting=1;jiggle=2;" vertex="1" parent="fP4WKbK4oEpIIap1OxGO-2">
                    <mxGeometry x="60" y="12" width="110" height="26" as="geometry"/>
                </mxCell>
                <mxCell id="fP4WKbK4oEpIIap1OxGO-4" value="https://www.draw.io" style="strokeWidth=1;shadow=0;dashed=0;align=center;html=1;shape=mxgraph.mockup.containers.anchor;rSize=0;fontSize=17;fontColor=#666666;align=left;hachureGap=4;fontFamily=Architects Daughter;fontSource=https%3A%2F%2Ffonts.googleapis.com%2Fcss%3Ffamily%3DArchitects%2BDaughter;rounded=0;sketch=1;curveFitting=1;jiggle=2;" vertex="1" parent="fP4WKbK4oEpIIap1OxGO-2">
                    <mxGeometry x="130" y="60" width="250" height="26" as="geometry"/>
                </mxCell>
                <mxCell id="fP4WKbK4oEpIIap1OxGO-5" value="" style="group" vertex="1" connectable="0" parent="fP4WKbK4oEpIIap1OxGO-2">
                    <mxGeometry x="40" y="240" width="680" height="80" as="geometry"/>
                </mxCell>
                <mxCell id="fP4WKbK4oEpIIap1OxGO-6" value="" style="rounded=1;whiteSpace=wrap;html=1;sketch=1;hachureGap=4;jiggle=2;curveFitting=1;fontFamily=Architects Daughter;fontSource=https%3A%2F%2Ffonts.googleapis.com%2Fcss%3Ffamily%3DArchitects%2BDaughter;fontSize=20;" vertex="1" parent="fP4WKbK4oEpIIap1OxGO-5">
                    <mxGeometry width="641.6901408450703" height="80" as="geometry"/>
                </mxCell>
                <mxCell id="fP4WKbK4oEpIIap1OxGO-7" value="Khối ngành A" style="rounded=1;whiteSpace=wrap;html=1;sketch=1;hachureGap=4;jiggle=2;curveFitting=1;fontFamily=Architects Daughter;fontSource=https%3A%2F%2Ffonts.googleapis.com%2Fcss%3Ffamily%3DArchitects%2BDaughter;fontSize=20;" vertex="1" parent="fP4WKbK4oEpIIap1OxGO-5">
                    <mxGeometry x="16.588169014084507" y="13.33" width="194.11605633802816" height="53.33" as="geometry"/>
                </mxCell>
                <mxCell id="fP4WKbK4oEpIIap1OxGO-8" value="Ở đâu" style="text;html=1;strokeColor=none;fillColor=none;align=center;verticalAlign=middle;whiteSpace=wrap;rounded=0;sketch=1;hachureGap=4;jiggle=2;curveFitting=1;fontFamily=Architects Daughter;fontSource=https%3A%2F%2Ffonts.googleapis.com%2Fcss%3Ffamily%3DArchitects%2BDaughter;fontSize=20;" vertex="1" parent="fP4WKbK4oEpIIap1OxGO-5">
                    <mxGeometry x="249.01408450704224" y="26.67" width="57.46478873239436" height="26.67" as="geometry"/>
                </mxCell>
                <mxCell id="fP4WKbK4oEpIIap1OxGO-9" value="Search khu vực" style="rounded=1;whiteSpace=wrap;html=1;sketch=1;hachureGap=4;jiggle=2;curveFitting=1;fontFamily=Architects Daughter;fontSource=https%3A%2F%2Ffonts.googleapis.com%2Fcss%3Ffamily%3DArchitects%2BDaughter;fontSize=20;" vertex="1" parent="fP4WKbK4oEpIIap1OxGO-5">
                    <mxGeometry x="348.29408450704227" y="13.33" width="197.62140845070422" height="53.33" as="geometry"/>
                </mxCell>
                <mxCell id="fP4WKbK4oEpIIap1OxGO-10" value="" style="sketch=0;html=1;aspect=fixed;strokeColor=none;shadow=0;align=center;verticalAlign=top;fillColor=#3B8DF1;shape=mxgraph.gcp2.search;hachureGap=4;jiggle=2;curveFitting=1;fontFamily=Architects Daughter;fontSource=https%3A%2F%2Ffonts.googleapis.com%2Fcss%3Ffamily%3DArchitects%2BDaughter;fontSize=20;" vertex="1" parent="fP4WKbK4oEpIIap1OxGO-5">
                    <mxGeometry x="574.6481209206457" y="25.911111111111115" width="26.736917897629674" height="27.003778770182066" as="geometry"/>
                </mxCell>
                <mxCell id="fP4WKbK4oEpIIap1OxGO-37" value="" style="group" vertex="1" connectable="0" parent="fP4WKbK4oEpIIap1OxGO-2">
                    <mxGeometry y="110" width="1040" height="96" as="geometry"/>
                </mxCell>
                <mxCell id="fP4WKbK4oEpIIap1OxGO-38" value="" style="verticalLabelPosition=bottom;shadow=0;dashed=0;align=center;html=1;verticalAlign=top;strokeWidth=1;shape=mxgraph.mockup.graphics.simpleIcon;strokeColor=#999999;sketch=1;hachureGap=4;jiggle=2;curveFitting=1;fontFamily=Architects Daughter;fontSource=https%3A%2F%2Ffonts.googleapis.com%2Fcss%3Ffamily%3DArchitects%2BDaughter;fontSize=20;" vertex="1" parent="fP4WKbK4oEpIIap1OxGO-37">
                    <mxGeometry width="1040" height="96" as="geometry"/>
                </mxCell>
                <mxCell id="fP4WKbK4oEpIIap1OxGO-39" value="Header" style="text;html=1;strokeColor=none;fillColor=none;align=center;verticalAlign=middle;whiteSpace=wrap;rounded=0;sketch=1;hachureGap=4;jiggle=2;curveFitting=1;fontFamily=Architects Daughter;fontSource=https%3A%2F%2Ffonts.googleapis.com%2Fcss%3Ffamily%3DArchitects%2BDaughter;fontSize=20;" vertex="1" parent="fP4WKbK4oEpIIap1OxGO-37">
                    <mxGeometry x="281.66666666666663" y="33" width="476.6666666666667" height="30" as="geometry"/>
                </mxCell>
                <mxCell id="r82jD7K_HQS1vNIeFFAb-0" value="" style="group" vertex="1" connectable="0" parent="fP4WKbK4oEpIIap1OxGO-2">
                    <mxGeometry x="70" y="430" width="880" height="96" as="geometry"/>
                </mxCell>
                <mxCell id="r82jD7K_HQS1vNIeFFAb-1" value="" style="verticalLabelPosition=bottom;shadow=0;dashed=0;align=center;html=1;verticalAlign=top;strokeWidth=1;shape=mxgraph.mockup.graphics.simpleIcon;strokeColor=#999999;sketch=1;hachureGap=4;jiggle=2;curveFitting=1;fontFamily=Architects Daughter;fontSource=https%3A%2F%2Ffonts.googleapis.com%2Fcss%3Ffamily%3DArchitects%2BDaughter;fontSize=20;" vertex="1" parent="r82jD7K_HQS1vNIeFFAb-0">
                    <mxGeometry width="880.0000000000001" height="96" as="geometry"/>
                </mxCell>
                <mxCell id="r82jD7K_HQS1vNIeFFAb-2" value="Ảnh đại diện" style="text;html=1;strokeColor=none;fillColor=none;align=center;verticalAlign=middle;whiteSpace=wrap;rounded=0;sketch=1;hachureGap=4;jiggle=2;curveFitting=1;fontFamily=Architects Daughter;fontSource=https%3A%2F%2Ffonts.googleapis.com%2Fcss%3Ffamily%3DArchitects%2BDaughter;fontSize=20;" vertex="1" parent="r82jD7K_HQS1vNIeFFAb-0">
                    <mxGeometry x="265.61144390767583" y="33" width="348.7841975308642" height="30" as="geometry"/>
                </mxCell>
                <mxCell id="P0VNwjgwigmBZZAQr_-B-1" value="&lt;span style=&quot;font-size: 20px; font-weight: 400;&quot;&gt;Khối ngành A&lt;/span&gt;" style="text;strokeColor=none;fillColor=none;html=1;fontSize=24;fontStyle=1;verticalAlign=middle;align=center;labelBackgroundColor=none;sketch=1;hachureGap=4;jiggle=2;curveFitting=1;fontFamily=Architects Daughter;fontSource=https%3A%2F%2Ffonts.googleapis.com%2Fcss%3Ffamily%3DArchitects%2BDaughter;fontColor=default;" vertex="1" parent="fP4WKbK4oEpIIap1OxGO-2">
                    <mxGeometry x="60" y="380" width="130" height="40" as="geometry"/>
                </mxCell>
                <mxCell id="P0VNwjgwigmBZZAQr_-B-8" value="Sửa" style="rounded=1;fillColor=#F1F2F4;strokeColor=none;html=1;fontColor=#596780;align=center;verticalAlign=middle;fontStyle=0;fontSize=12;sketch=0;labelBackgroundColor=none;hachureGap=4;jiggle=2;curveFitting=1;fontFamily=Architects Daughter;fontSource=https%3A%2F%2Ffonts.googleapis.com%2Fcss%3Ffamily%3DArchitects%2BDaughter;" vertex="1" parent="fP4WKbK4oEpIIap1OxGO-2">
                    <mxGeometry x="840" y="383.5" width="40" height="33" as="geometry"/>
                </mxCell>
                <mxCell id="P0VNwjgwigmBZZAQr_-B-9" value="Xóa" style="rounded=1;fillColor=#F1F2F4;strokeColor=none;html=1;fontColor=#596780;align=center;verticalAlign=middle;fontStyle=0;fontSize=12;sketch=0;labelBackgroundColor=none;hachureGap=4;jiggle=2;curveFitting=1;fontFamily=Architects Daughter;fontSource=https%3A%2F%2Ffonts.googleapis.com%2Fcss%3Ffamily%3DArchitects%2BDaughter;" vertex="1" parent="fP4WKbK4oEpIIap1OxGO-2">
                    <mxGeometry x="890" y="383.5" width="40" height="33" as="geometry"/>
                </mxCell>
                <mxCell id="SS-707AHCIw7h5YtfKuo-1" value="" style="rounded=0;whiteSpace=wrap;html=1;labelBackgroundColor=none;sketch=1;hachureGap=4;jiggle=2;curveFitting=1;fontFamily=Architects Daughter;fontSource=https%3A%2F%2Ffonts.googleapis.com%2Fcss%3Ffamily%3DArchitects%2BDaughter;fontSize=21;fontColor=default;fillColor=none;" vertex="1" parent="fP4WKbK4oEpIIap1OxGO-2">
                    <mxGeometry x="70" y="550" width="880" height="230" as="geometry"/>
                </mxCell>
                <mxCell id="SS-707AHCIw7h5YtfKuo-2" value="Ngành tiêu điểm" style="text;strokeColor=none;fillColor=none;html=1;fontSize=24;fontStyle=1;verticalAlign=middle;align=center;labelBackgroundColor=none;sketch=1;hachureGap=4;jiggle=2;curveFitting=1;fontFamily=Architects Daughter;fontSource=https%3A%2F%2Ffonts.googleapis.com%2Fcss%3Ffamily%3DArchitects%2BDaughter;fontColor=default;" vertex="1" parent="fP4WKbK4oEpIIap1OxGO-2">
                    <mxGeometry x="99.99921568627452" y="580" width="172.54901960784315" height="40" as="geometry"/>
                </mxCell>
                <mxCell id="SS-707AHCIw7h5YtfKuo-3" value="&lt;ul&gt;&lt;li&gt;Ngành 1 (19)&lt;/li&gt;&lt;li&gt;Ngành 2 (43)&lt;/li&gt;&lt;li&gt;Ngành 3 (52)&lt;/li&gt;&lt;/ul&gt;" style="text;strokeColor=none;fillColor=none;html=1;whiteSpace=wrap;verticalAlign=top;overflow=hidden;labelBackgroundColor=none;sketch=1;hachureGap=4;jiggle=2;curveFitting=1;fontFamily=Architects Daughter;fontSource=https%3A%2F%2Ffonts.googleapis.com%2Fcss%3Ffamily%3DArchitects%2BDaughter;fontSize=21;fontColor=default;" vertex="1" parent="fP4WKbK4oEpIIap1OxGO-2">
                    <mxGeometry x="99.99960784313727" y="620" width="396.8627450980392" height="140" as="geometry"/>
                </mxCell>
                <mxCell id="SS-707AHCIw7h5YtfKuo-4" value="&lt;ul&gt;&lt;li&gt;Ngành 4 (19)&lt;/li&gt;&lt;li&gt;Ngành 5 (43)&lt;/li&gt;&lt;li&gt;Ngành 6 (52)&lt;/li&gt;&lt;/ul&gt;" style="text;strokeColor=none;fillColor=none;html=1;whiteSpace=wrap;verticalAlign=top;overflow=hidden;labelBackgroundColor=none;sketch=1;hachureGap=4;jiggle=2;curveFitting=1;fontFamily=Architects Daughter;fontSource=https%3A%2F%2Ffonts.googleapis.com%2Fcss%3Ffamily%3DArchitects%2BDaughter;fontSize=21;fontColor=default;" vertex="1" parent="fP4WKbK4oEpIIap1OxGO-2">
                    <mxGeometry x="580" y="620" width="350" height="140" as="geometry"/>
                </mxCell>
                <mxCell id="b6xAm5glSIWHnHasz1EV-0" value="" style="group" vertex="1" connectable="0" parent="fP4WKbK4oEpIIap1OxGO-2">
                    <mxGeometry x="70" y="810" width="880" height="410" as="geometry"/>
                </mxCell>
                <mxCell id="b6xAm5glSIWHnHasz1EV-1" value="" style="rounded=0;whiteSpace=wrap;html=1;labelBackgroundColor=none;sketch=1;hachureGap=4;jiggle=2;curveFitting=1;fontFamily=Architects Daughter;fontSource=https%3A%2F%2Ffonts.googleapis.com%2Fcss%3Ffamily%3DArchitects%2BDaughter;fontSize=21;fontColor=default;fillColor=none;" vertex="1" parent="b6xAm5glSIWHnHasz1EV-0">
                    <mxGeometry width="880.0000000000001" height="410" as="geometry"/>
                </mxCell>
                <mxCell id="b6xAm5glSIWHnHasz1EV-2" value="Nhóm A1" style="text;strokeColor=none;fillColor=none;html=1;fontSize=24;fontStyle=1;verticalAlign=middle;align=left;labelBackgroundColor=none;sketch=1;hachureGap=4;jiggle=2;curveFitting=1;fontFamily=Architects Daughter;fontSource=https%3A%2F%2Ffonts.googleapis.com%2Fcss%3Ffamily%3DArchitects%2BDaughter;fontColor=default;" vertex="1" parent="b6xAm5glSIWHnHasz1EV-0">
                    <mxGeometry x="26.6640522875817" y="37.269986631016046" width="108.49673202614379" height="59.197860962566835" as="geometry"/>
                </mxCell>
                <mxCell id="b6xAm5glSIWHnHasz1EV-3" value="" style="group" vertex="1" connectable="0" parent="b6xAm5glSIWHnHasz1EV-0">
                    <mxGeometry x="26.666666666666668" y="102.5" width="160" height="214.3181818181818" as="geometry"/>
                </mxCell>
                <mxCell id="b6xAm5glSIWHnHasz1EV-4" value="" style="group" vertex="1" connectable="0" parent="b6xAm5glSIWHnHasz1EV-3">
                    <mxGeometry width="160" height="214.3181818181818" as="geometry"/>
                </mxCell>
                <mxCell id="b6xAm5glSIWHnHasz1EV-5" value="" style="verticalLabelPosition=bottom;shadow=0;dashed=0;align=center;html=1;verticalAlign=top;strokeWidth=1;shape=mxgraph.mockup.graphics.simpleIcon;strokeColor=#999999;sketch=1;hachureGap=4;jiggle=2;curveFitting=1;fontFamily=Architects Daughter;fontSource=https%3A%2F%2Ffonts.googleapis.com%2Fcss%3Ffamily%3DArchitects%2BDaughter;fontSize=20;" vertex="1" parent="b6xAm5glSIWHnHasz1EV-4">
                    <mxGeometry y="9.318181818181818" width="160" height="205" as="geometry"/>
                </mxCell>
                <mxCell id="b6xAm5glSIWHnHasz1EV-6" value="Ảnh đại diện" style="text;html=1;strokeColor=none;fillColor=none;align=center;verticalAlign=middle;whiteSpace=wrap;rounded=0;sketch=1;hachureGap=4;jiggle=2;curveFitting=1;fontFamily=Architects Daughter;fontSource=https%3A%2F%2Ffonts.googleapis.com%2Fcss%3Ffamily%3DArchitects%2BDaughter;fontSize=20;" vertex="1" parent="b6xAm5glSIWHnHasz1EV-4">
                    <mxGeometry x="46.66666666666667" y="93.18181818181817" width="73.33333333333333" height="27.954545454545453" as="geometry"/>
                </mxCell>
                <mxCell id="b6xAm5glSIWHnHasz1EV-7" value="&lt;ul style=&quot;font-size: 16px;&quot;&gt;&lt;li&gt;Ngành A3 (30)&lt;/li&gt;&lt;ul&gt;&lt;li&gt;Ngành 1 liên quan tới A3 (21)&lt;/li&gt;&lt;li&gt;Ngành 2 liên quan tới A3 (33)&amp;nbsp;&lt;/li&gt;&lt;/ul&gt;&lt;li&gt;Ngành A4 (1203)&lt;/li&gt;&lt;ul&gt;&lt;li&gt;Ngành 3 liên quan tới A4 (21)&lt;/li&gt;&lt;li&gt;Ngành 4 liên quan tới A4 (33)&lt;/li&gt;&lt;/ul&gt;&lt;li&gt;o o o&lt;/li&gt;&lt;/ul&gt;" style="text;strokeColor=none;fillColor=none;html=1;whiteSpace=wrap;verticalAlign=middle;overflow=hidden;sketch=1;hachureGap=4;jiggle=2;curveFitting=1;fontFamily=Architects Daughter;fontSource=https%3A%2F%2Ffonts.googleapis.com%2Fcss%3Ffamily%3DArchitects%2BDaughter;fontSize=30;fontColor=#C9C9C9;" vertex="1" parent="b6xAm5glSIWHnHasz1EV-0">
                    <mxGeometry x="213.33270588235297" y="83.86" width="314.6672941176471" height="288.86" as="geometry"/>
                </mxCell>
                <mxCell id="b6xAm5glSIWHnHasz1EV-8" value="&lt;ul style=&quot;font-size: 16px;&quot;&gt;&lt;li&gt;Ngành A5 (30)&lt;/li&gt;&lt;ul&gt;&lt;li&gt;Ngành 1 liên quan tới A5 (21)&lt;/li&gt;&lt;li&gt;Ngành 2 liên quan tới A5 (33)&amp;nbsp;&lt;/li&gt;&lt;/ul&gt;&lt;li&gt;Ngành A6 (1203)&lt;/li&gt;&lt;ul&gt;&lt;li&gt;Ngành 3 liên quan tới A6 (21)&lt;/li&gt;&lt;li&gt;Ngành 4 liên quan tới A6 (33)&lt;/li&gt;&lt;/ul&gt;&lt;li&gt;o o o&lt;/li&gt;&lt;/ul&gt;" style="text;strokeColor=none;fillColor=none;html=1;whiteSpace=wrap;verticalAlign=middle;overflow=hidden;sketch=1;hachureGap=4;jiggle=2;curveFitting=1;fontFamily=Architects Daughter;fontSource=https%3A%2F%2Ffonts.googleapis.com%2Fcss%3Ffamily%3DArchitects%2BDaughter;fontSize=30;fontColor=#C9C9C9;" vertex="1" parent="b6xAm5glSIWHnHasz1EV-0">
                    <mxGeometry x="528" y="74.55" width="331.29411764705884" height="288.86" as="geometry"/>
                </mxCell>
                <mxCell id="b6xAm5glSIWHnHasz1EV-9" value="" style="group" vertex="1" connectable="0" parent="fP4WKbK4oEpIIap1OxGO-2">
                    <mxGeometry x="70" y="1250" width="880" height="410" as="geometry"/>
                </mxCell>
                <mxCell id="b6xAm5glSIWHnHasz1EV-10" value="" style="rounded=0;whiteSpace=wrap;html=1;labelBackgroundColor=none;sketch=1;hachureGap=4;jiggle=2;curveFitting=1;fontFamily=Architects Daughter;fontSource=https%3A%2F%2Ffonts.googleapis.com%2Fcss%3Ffamily%3DArchitects%2BDaughter;fontSize=21;fontColor=default;fillColor=none;" vertex="1" parent="b6xAm5glSIWHnHasz1EV-9">
                    <mxGeometry width="880.0000000000001" height="410" as="geometry"/>
                </mxCell>
                <mxCell id="b6xAm5glSIWHnHasz1EV-11" value="Nhóm A1" style="text;strokeColor=none;fillColor=none;html=1;fontSize=24;fontStyle=1;verticalAlign=middle;align=left;labelBackgroundColor=none;sketch=1;hachureGap=4;jiggle=2;curveFitting=1;fontFamily=Architects Daughter;fontSource=https%3A%2F%2Ffonts.googleapis.com%2Fcss%3Ffamily%3DArchitects%2BDaughter;fontColor=default;" vertex="1" parent="b6xAm5glSIWHnHasz1EV-9">
                    <mxGeometry x="26.6640522875817" y="37.269986631016046" width="108.49673202614379" height="59.197860962566835" as="geometry"/>
                </mxCell>
                <mxCell id="b6xAm5glSIWHnHasz1EV-12" value="" style="group" vertex="1" connectable="0" parent="b6xAm5glSIWHnHasz1EV-9">
                    <mxGeometry x="26.666666666666668" y="102.5" width="160" height="214.3181818181818" as="geometry"/>
                </mxCell>
                <mxCell id="b6xAm5glSIWHnHasz1EV-13" value="" style="group" vertex="1" connectable="0" parent="b6xAm5glSIWHnHasz1EV-12">
                    <mxGeometry width="160" height="214.3181818181818" as="geometry"/>
                </mxCell>
                <mxCell id="b6xAm5glSIWHnHasz1EV-14" value="" style="verticalLabelPosition=bottom;shadow=0;dashed=0;align=center;html=1;verticalAlign=top;strokeWidth=1;shape=mxgraph.mockup.graphics.simpleIcon;strokeColor=#999999;sketch=1;hachureGap=4;jiggle=2;curveFitting=1;fontFamily=Architects Daughter;fontSource=https%3A%2F%2Ffonts.googleapis.com%2Fcss%3Ffamily%3DArchitects%2BDaughter;fontSize=20;" vertex="1" parent="b6xAm5glSIWHnHasz1EV-13">
                    <mxGeometry y="9.318181818181818" width="160" height="205" as="geometry"/>
                </mxCell>
                <mxCell id="b6xAm5glSIWHnHasz1EV-15" value="Ảnh đại diện" style="text;html=1;strokeColor=none;fillColor=none;align=center;verticalAlign=middle;whiteSpace=wrap;rounded=0;sketch=1;hachureGap=4;jiggle=2;curveFitting=1;fontFamily=Architects Daughter;fontSource=https%3A%2F%2Ffonts.googleapis.com%2Fcss%3Ffamily%3DArchitects%2BDaughter;fontSize=20;" vertex="1" parent="b6xAm5glSIWHnHasz1EV-13">
                    <mxGeometry x="46.66666666666667" y="93.18181818181817" width="73.33333333333333" height="27.954545454545453" as="geometry"/>
                </mxCell>
                <mxCell id="b6xAm5glSIWHnHasz1EV-16" value="&lt;ul style=&quot;font-size: 16px;&quot;&gt;&lt;li&gt;Ngành A3 (30)&lt;/li&gt;&lt;ul&gt;&lt;li&gt;Ngành 1 liên quan tới A3 (21)&lt;/li&gt;&lt;li&gt;Ngành 2 liên quan tới A3 (33)&amp;nbsp;&lt;/li&gt;&lt;/ul&gt;&lt;li&gt;Ngành A4 (1203)&lt;/li&gt;&lt;ul&gt;&lt;li&gt;Ngành 3 liên quan tới A4 (21)&lt;/li&gt;&lt;li&gt;Ngành 4 liên quan tới A4 (33)&lt;/li&gt;&lt;/ul&gt;&lt;li&gt;o o o&lt;/li&gt;&lt;/ul&gt;" style="text;strokeColor=none;fillColor=none;html=1;whiteSpace=wrap;verticalAlign=middle;overflow=hidden;sketch=1;hachureGap=4;jiggle=2;curveFitting=1;fontFamily=Architects Daughter;fontSource=https%3A%2F%2Ffonts.googleapis.com%2Fcss%3Ffamily%3DArchitects%2BDaughter;fontSize=30;fontColor=#C9C9C9;" vertex="1" parent="b6xAm5glSIWHnHasz1EV-9">
                    <mxGeometry x="213.33270588235297" y="83.86" width="314.6672941176471" height="288.86" as="geometry"/>
                </mxCell>
                <mxCell id="b6xAm5glSIWHnHasz1EV-17" value="&lt;ul style=&quot;font-size: 16px;&quot;&gt;&lt;li&gt;Ngành A5 (30)&lt;/li&gt;&lt;ul&gt;&lt;li&gt;Ngành 1 liên quan tới A5 (21)&lt;/li&gt;&lt;li&gt;Ngành 2 liên quan tới A5 (33)&amp;nbsp;&lt;/li&gt;&lt;/ul&gt;&lt;li&gt;Ngành A6 (1203)&lt;/li&gt;&lt;ul&gt;&lt;li&gt;Ngành 3 liên quan tới A6 (21)&lt;/li&gt;&lt;li&gt;Ngành 4 liên quan tới A6 (33)&lt;/li&gt;&lt;/ul&gt;&lt;li&gt;o o o&lt;/li&gt;&lt;/ul&gt;" style="text;strokeColor=none;fillColor=none;html=1;whiteSpace=wrap;verticalAlign=middle;overflow=hidden;sketch=1;hachureGap=4;jiggle=2;curveFitting=1;fontFamily=Architects Daughter;fontSource=https%3A%2F%2Ffonts.googleapis.com%2Fcss%3Ffamily%3DArchitects%2BDaughter;fontSize=30;fontColor=#C9C9C9;" vertex="1" parent="b6xAm5glSIWHnHasz1EV-9">
                    <mxGeometry x="528" y="74.55" width="331.29411764705884" height="288.86" as="geometry"/>
                </mxCell>
                <mxCell id="fP4WKbK4oEpIIap1OxGO-48" value="&lt;font color=&quot;#c9c9c9&quot;&gt;&lt;span style=&quot;font-size: 30px;&quot;&gt;3. Chi tiết khối ngành&lt;/span&gt;&lt;/font&gt;" style="text;html=1;strokeColor=none;fillColor=none;align=center;verticalAlign=middle;whiteSpace=wrap;rounded=0;sketch=1;hachureGap=4;jiggle=2;curveFitting=1;fontFamily=Architects Daughter;fontSource=https%3A%2F%2Ffonts.googleapis.com%2Fcss%3Ffamily%3DArchitects%2BDaughter;fontSize=35;" vertex="1" parent="fP4WKbK4oEpIIap1OxGO-1">
                    <mxGeometry x="405" y="30" width="350" height="30" as="geometry"/>
                </mxCell>
                <mxCell id="hUOw8rhINRDFSVdHRE_w-0" value="" style="group" vertex="1" connectable="0" parent="fP4WKbK4oEpIIap1OxGO-1">
                    <mxGeometry x="160" y="1840" width="1040" height="96" as="geometry"/>
                </mxCell>
                <mxCell id="hUOw8rhINRDFSVdHRE_w-1" value="" style="verticalLabelPosition=bottom;shadow=0;dashed=0;align=center;html=1;verticalAlign=top;strokeWidth=1;shape=mxgraph.mockup.graphics.simpleIcon;strokeColor=#999999;sketch=1;hachureGap=4;jiggle=2;curveFitting=1;fontFamily=Architects Daughter;fontSource=https%3A%2F%2Ffonts.googleapis.com%2Fcss%3Ffamily%3DArchitects%2BDaughter;fontSize=20;" vertex="1" parent="hUOw8rhINRDFSVdHRE_w-0">
                    <mxGeometry width="1040" height="96" as="geometry"/>
                </mxCell>
                <mxCell id="hUOw8rhINRDFSVdHRE_w-2" value="Footer" style="text;html=1;strokeColor=none;fillColor=none;align=center;verticalAlign=middle;whiteSpace=wrap;rounded=0;sketch=1;hachureGap=4;jiggle=2;curveFitting=1;fontFamily=Architects Daughter;fontSource=https%3A%2F%2Ffonts.googleapis.com%2Fcss%3Ffamily%3DArchitects%2BDaughter;fontSize=20;" vertex="1" parent="hUOw8rhINRDFSVdHRE_w-0">
                    <mxGeometry x="281.6666666666667" y="33" width="476.6666666666667" height="30" as="geometry"/>
                </mxCell>
            </root>
        </mxGraphModel>
    </diagram>
    <diagram name="4. Chi tiết ngành" id="9q08CklDrjMNG9AIS-3r">
        <mxGraphModel dx="2082" dy="1158" grid="1" gridSize="10" guides="1" tooltips="1" connect="1" arrows="1" fold="1" page="1" pageScale="1" pageWidth="1600" pageHeight="900" math="0" shadow="0">
            <root>
                <mxCell id="wk5tLhPY4vMojB6MMI5w-0"/>
                <mxCell id="wk5tLhPY4vMojB6MMI5w-1" parent="wk5tLhPY4vMojB6MMI5w-0"/>
                <mxCell id="wk5tLhPY4vMojB6MMI5w-2" value="" style="strokeWidth=1;shadow=0;dashed=0;align=center;html=1;shape=mxgraph.mockup.containers.browserWindow;rSize=0;strokeColor=#666666;strokeColor2=#008cff;strokeColor3=#c4c4c4;mainText=,;recursiveResize=0;hachureGap=4;fontFamily=Architects Daughter;fontSource=https%3A%2F%2Ffonts.googleapis.com%2Fcss%3Ffamily%3DArchitects%2BDaughter;fontSize=20;rounded=0;sketch=1;curveFitting=1;jiggle=2;" vertex="1" parent="wk5tLhPY4vMojB6MMI5w-1">
                    <mxGeometry x="160" y="90" width="1000" height="1500" as="geometry"/>
                </mxCell>
                <mxCell id="wk5tLhPY4vMojB6MMI5w-3" value="Vendor dat...." style="strokeWidth=1;shadow=0;dashed=0;align=center;html=1;shape=mxgraph.mockup.containers.anchor;fontSize=17;fontColor=#666666;align=left;hachureGap=4;fontFamily=Architects Daughter;fontSource=https%3A%2F%2Ffonts.googleapis.com%2Fcss%3Ffamily%3DArchitects%2BDaughter;rounded=0;sketch=1;curveFitting=1;jiggle=2;" vertex="1" parent="wk5tLhPY4vMojB6MMI5w-2">
                    <mxGeometry x="60" y="12" width="110" height="26" as="geometry"/>
                </mxCell>
                <mxCell id="wk5tLhPY4vMojB6MMI5w-4" value="https://www.draw.io" style="strokeWidth=1;shadow=0;dashed=0;align=center;html=1;shape=mxgraph.mockup.containers.anchor;rSize=0;fontSize=17;fontColor=#666666;align=left;hachureGap=4;fontFamily=Architects Daughter;fontSource=https%3A%2F%2Ffonts.googleapis.com%2Fcss%3Ffamily%3DArchitects%2BDaughter;rounded=0;sketch=1;curveFitting=1;jiggle=2;" vertex="1" parent="wk5tLhPY4vMojB6MMI5w-2">
                    <mxGeometry x="130" y="60" width="250" height="26" as="geometry"/>
                </mxCell>
                <mxCell id="wk5tLhPY4vMojB6MMI5w-5" value="" style="group" vertex="1" connectable="0" parent="wk5tLhPY4vMojB6MMI5w-2">
                    <mxGeometry x="40" y="240" width="680" height="80" as="geometry"/>
                </mxCell>
                <mxCell id="wk5tLhPY4vMojB6MMI5w-6" value="" style="rounded=1;whiteSpace=wrap;html=1;sketch=1;hachureGap=4;jiggle=2;curveFitting=1;fontFamily=Architects Daughter;fontSource=https%3A%2F%2Ffonts.googleapis.com%2Fcss%3Ffamily%3DArchitects%2BDaughter;fontSize=20;" vertex="1" parent="wk5tLhPY4vMojB6MMI5w-5">
                    <mxGeometry width="641.6901408450703" height="80" as="geometry"/>
                </mxCell>
                <mxCell id="wk5tLhPY4vMojB6MMI5w-7" value="Ngành A" style="rounded=1;whiteSpace=wrap;html=1;sketch=1;hachureGap=4;jiggle=2;curveFitting=1;fontFamily=Architects Daughter;fontSource=https%3A%2F%2Ffonts.googleapis.com%2Fcss%3Ffamily%3DArchitects%2BDaughter;fontSize=20;" vertex="1" parent="wk5tLhPY4vMojB6MMI5w-5">
                    <mxGeometry x="16.588169014084507" y="13.33" width="194.11605633802816" height="53.33" as="geometry"/>
                </mxCell>
                <mxCell id="wk5tLhPY4vMojB6MMI5w-8" value="Ở đâu" style="text;html=1;strokeColor=none;fillColor=none;align=center;verticalAlign=middle;whiteSpace=wrap;rounded=0;sketch=1;hachureGap=4;jiggle=2;curveFitting=1;fontFamily=Architects Daughter;fontSource=https%3A%2F%2Ffonts.googleapis.com%2Fcss%3Ffamily%3DArchitects%2BDaughter;fontSize=20;" vertex="1" parent="wk5tLhPY4vMojB6MMI5w-5">
                    <mxGeometry x="249.01408450704224" y="26.67" width="57.46478873239436" height="26.67" as="geometry"/>
                </mxCell>
                <mxCell id="wk5tLhPY4vMojB6MMI5w-9" value="Search khu vực" style="rounded=1;whiteSpace=wrap;html=1;sketch=1;hachureGap=4;jiggle=2;curveFitting=1;fontFamily=Architects Daughter;fontSource=https%3A%2F%2Ffonts.googleapis.com%2Fcss%3Ffamily%3DArchitects%2BDaughter;fontSize=20;" vertex="1" parent="wk5tLhPY4vMojB6MMI5w-5">
                    <mxGeometry x="348.29408450704227" y="13.33" width="197.62140845070422" height="53.33" as="geometry"/>
                </mxCell>
                <mxCell id="wk5tLhPY4vMojB6MMI5w-10" value="" style="sketch=0;html=1;aspect=fixed;strokeColor=none;shadow=0;align=center;verticalAlign=top;fillColor=#3B8DF1;shape=mxgraph.gcp2.search;hachureGap=4;jiggle=2;curveFitting=1;fontFamily=Architects Daughter;fontSource=https%3A%2F%2Ffonts.googleapis.com%2Fcss%3Ffamily%3DArchitects%2BDaughter;fontSize=20;" vertex="1" parent="wk5tLhPY4vMojB6MMI5w-5">
                    <mxGeometry x="574.6481209206457" y="25.911111111111115" width="26.736917897629674" height="27.003778770182066" as="geometry"/>
                </mxCell>
                <mxCell id="wk5tLhPY4vMojB6MMI5w-11" value="" style="group" vertex="1" connectable="0" parent="wk5tLhPY4vMojB6MMI5w-2">
                    <mxGeometry y="110" width="1000" height="96" as="geometry"/>
                </mxCell>
                <mxCell id="wk5tLhPY4vMojB6MMI5w-12" value="" style="verticalLabelPosition=bottom;shadow=0;dashed=0;align=center;html=1;verticalAlign=top;strokeWidth=1;shape=mxgraph.mockup.graphics.simpleIcon;strokeColor=#999999;sketch=1;hachureGap=4;jiggle=2;curveFitting=1;fontFamily=Architects Daughter;fontSource=https%3A%2F%2Ffonts.googleapis.com%2Fcss%3Ffamily%3DArchitects%2BDaughter;fontSize=20;" vertex="1" parent="wk5tLhPY4vMojB6MMI5w-11">
                    <mxGeometry width="1000" height="96" as="geometry"/>
                </mxCell>
                <mxCell id="wk5tLhPY4vMojB6MMI5w-13" value="Header" style="text;html=1;strokeColor=none;fillColor=none;align=center;verticalAlign=middle;whiteSpace=wrap;rounded=0;sketch=1;hachureGap=4;jiggle=2;curveFitting=1;fontFamily=Architects Daughter;fontSource=https%3A%2F%2Ffonts.googleapis.com%2Fcss%3Ffamily%3DArchitects%2BDaughter;fontSize=20;" vertex="1" parent="wk5tLhPY4vMojB6MMI5w-11">
                    <mxGeometry x="270.8333333333333" y="33" width="458.3333333333333" height="30" as="geometry"/>
                </mxCell>
                <mxCell id="wk5tLhPY4vMojB6MMI5w-27" value="" style="group" vertex="1" connectable="0" parent="wk5tLhPY4vMojB6MMI5w-2">
                    <mxGeometry x="400" y="370" width="570" height="96" as="geometry"/>
                </mxCell>
                <mxCell id="wk5tLhPY4vMojB6MMI5w-28" value="" style="verticalLabelPosition=bottom;shadow=0;dashed=0;align=center;html=1;verticalAlign=top;strokeWidth=1;shape=mxgraph.mockup.graphics.simpleIcon;strokeColor=#999999;sketch=1;hachureGap=4;jiggle=2;curveFitting=1;fontFamily=Architects Daughter;fontSource=https%3A%2F%2Ffonts.googleapis.com%2Fcss%3Ffamily%3DArchitects%2BDaughter;fontSize=20;" vertex="1" parent="wk5tLhPY4vMojB6MMI5w-27">
                    <mxGeometry width="570" height="96" as="geometry"/>
                </mxCell>
                <mxCell id="wk5tLhPY4vMojB6MMI5w-29" value="Thông tin cơ bản về khối ngành A" style="text;html=1;strokeColor=none;fillColor=none;align=center;verticalAlign=middle;whiteSpace=wrap;rounded=0;sketch=1;hachureGap=4;jiggle=2;curveFitting=1;fontFamily=Architects Daughter;fontSource=https%3A%2F%2Ffonts.googleapis.com%2Fcss%3Ffamily%3DArchitects%2BDaughter;fontSize=20;" vertex="1" parent="wk5tLhPY4vMojB6MMI5w-27">
                    <mxGeometry x="118.64290909090911" y="33" width="332.7141818181818" height="30" as="geometry"/>
                </mxCell>
                <mxCell id="jaksYj50HJe_tCfYGOMl-0" value="Sửa" style="rounded=1;fillColor=#F1F2F4;strokeColor=none;html=1;fontColor=#596780;align=center;verticalAlign=middle;fontStyle=0;fontSize=12;sketch=0;labelBackgroundColor=none;hachureGap=4;jiggle=2;curveFitting=1;fontFamily=Architects Daughter;fontSource=https%3A%2F%2Ffonts.googleapis.com%2Fcss%3Ffamily%3DArchitects%2BDaughter;" vertex="1" parent="wk5tLhPY4vMojB6MMI5w-2">
                    <mxGeometry x="870" y="480" width="40" height="33" as="geometry"/>
                </mxCell>
                <mxCell id="jaksYj50HJe_tCfYGOMl-1" value="Xóa" style="rounded=1;fillColor=#F1F2F4;strokeColor=none;html=1;fontColor=#596780;align=center;verticalAlign=middle;fontStyle=0;fontSize=12;sketch=0;labelBackgroundColor=none;hachureGap=4;jiggle=2;curveFitting=1;fontFamily=Architects Daughter;fontSource=https%3A%2F%2Ffonts.googleapis.com%2Fcss%3Ffamily%3DArchitects%2BDaughter;" vertex="1" parent="wk5tLhPY4vMojB6MMI5w-2">
                    <mxGeometry x="930" y="480" width="40" height="33" as="geometry"/>
                </mxCell>
                <mxCell id="wk5tLhPY4vMojB6MMI5w-15" value="&lt;b&gt;&lt;i&gt;Ngành nghề&lt;/i&gt;&lt;/b&gt;" style="text;html=1;strokeColor=none;fillColor=none;align=left;verticalAlign=middle;whiteSpace=wrap;rounded=0;sketch=1;hachureGap=4;jiggle=2;curveFitting=1;fontFamily=Architects Daughter;fontSource=https%3A%2F%2Ffonts.googleapis.com%2Fcss%3Ffamily%3DArchitects%2BDaughter;fontSize=20;" vertex="1" parent="wk5tLhPY4vMojB6MMI5w-2">
                    <mxGeometry x="40" y="370" width="220.68965517241378" height="30" as="geometry"/>
                </mxCell>
                <mxCell id="wk5tLhPY4vMojB6MMI5w-16" value="Ngành A (241)" style="text;html=1;strokeColor=none;fillColor=none;align=left;verticalAlign=middle;whiteSpace=wrap;rounded=0;labelBackgroundColor=none;sketch=1;hachureGap=4;jiggle=2;curveFitting=1;fontFamily=Architects Daughter;fontSource=https%3A%2F%2Ffonts.googleapis.com%2Fcss%3Ffamily%3DArchitects%2BDaughter;fontSize=21;fontColor=default;" vertex="1" parent="wk5tLhPY4vMojB6MMI5w-2">
                    <mxGeometry x="40" y="420" width="220.68965517241378" height="30" as="geometry"/>
                </mxCell>
                <mxCell id="wk5tLhPY4vMojB6MMI5w-19" value="&lt;b&gt;&lt;i&gt;Xem thêm ngành&lt;/i&gt;&lt;/b&gt;" style="text;html=1;strokeColor=none;fillColor=none;align=left;verticalAlign=middle;whiteSpace=wrap;rounded=0;sketch=1;hachureGap=4;jiggle=2;curveFitting=1;fontFamily=Architects Daughter;fontSource=https%3A%2F%2Ffonts.googleapis.com%2Fcss%3Ffamily%3DArchitects%2BDaughter;fontSize=20;" vertex="1" parent="wk5tLhPY4vMojB6MMI5w-2">
                    <mxGeometry x="40" y="460" width="220.68965517241378" height="30" as="geometry"/>
                </mxCell>
                <mxCell id="wk5tLhPY4vMojB6MMI5w-20" value="&lt;span style=&quot;background-color: initial;&quot;&gt;Ngành liên quan 1 (34)&lt;/span&gt;&lt;br&gt;&lt;span style=&quot;background-color: initial;&quot;&gt;Ngành liên quan 2 (21)&lt;br&gt;o o o&lt;br&gt;&lt;/span&gt;" style="text;strokeColor=none;fillColor=none;html=1;whiteSpace=wrap;verticalAlign=top;overflow=hidden;labelBackgroundColor=none;sketch=1;hachureGap=4;jiggle=2;curveFitting=1;fontFamily=Architects Daughter;fontSource=https%3A%2F%2Ffonts.googleapis.com%2Fcss%3Ffamily%3DArchitects%2BDaughter;fontSize=21;fontColor=default;horizontal=1;" vertex="1" parent="wk5tLhPY4vMojB6MMI5w-2">
                    <mxGeometry x="51.03448275862069" y="490" width="242.75862068965515" height="80" as="geometry"/>
                </mxCell>
                <mxCell id="wk5tLhPY4vMojB6MMI5w-21" value="" style="endArrow=none;html=1;sketch=1;hachureGap=4;jiggle=2;curveFitting=1;strokeColor=default;fontFamily=Architects Daughter;fontSource=https%3A%2F%2Ffonts.googleapis.com%2Fcss%3Ffamily%3DArchitects%2BDaughter;fontSize=16;" edge="1" parent="wk5tLhPY4vMojB6MMI5w-2">
                    <mxGeometry width="50" height="50" relative="1" as="geometry">
                        <mxPoint x="40" y="619.9999999999999" as="sourcePoint"/>
                        <mxPoint x="360" y="620" as="targetPoint"/>
                    </mxGeometry>
                </mxCell>
                <mxCell id="wk5tLhPY4vMojB6MMI5w-22" value="&lt;b&gt;&lt;i&gt;Tỉnh/thành phố&lt;/i&gt;&lt;/b&gt;" style="text;html=1;strokeColor=none;fillColor=none;align=left;verticalAlign=middle;whiteSpace=wrap;rounded=0;sketch=1;hachureGap=4;jiggle=2;curveFitting=1;fontFamily=Architects Daughter;fontSource=https%3A%2F%2Ffonts.googleapis.com%2Fcss%3Ffamily%3DArchitects%2BDaughter;fontSize=20;" vertex="1" parent="wk5tLhPY4vMojB6MMI5w-2">
                    <mxGeometry x="40" y="590" width="220.68965517241378" height="30" as="geometry"/>
                </mxCell>
                <mxCell id="wk5tLhPY4vMojB6MMI5w-23" value="&lt;span style=&quot;background-color: initial;&quot;&gt;Ngành A ở Hà Nội (34)&lt;/span&gt;&lt;br&gt;&lt;span style=&quot;background-color: initial;&quot;&gt;Ngành A ở tỉnh B (21)&lt;br&gt;o o o&lt;br&gt;&lt;/span&gt;" style="text;strokeColor=none;fillColor=none;html=1;whiteSpace=wrap;verticalAlign=top;overflow=hidden;labelBackgroundColor=none;sketch=1;hachureGap=4;jiggle=2;curveFitting=1;fontFamily=Architects Daughter;fontSource=https%3A%2F%2Ffonts.googleapis.com%2Fcss%3Ffamily%3DArchitects%2BDaughter;fontSize=21;fontColor=default;horizontal=1;" vertex="1" parent="wk5tLhPY4vMojB6MMI5w-2">
                    <mxGeometry x="40" y="630" width="297.9310344827586" height="80" as="geometry"/>
                </mxCell>
                <mxCell id="wk5tLhPY4vMojB6MMI5w-24" value="" style="endArrow=none;html=1;sketch=1;hachureGap=4;jiggle=2;curveFitting=1;strokeColor=default;fontFamily=Architects Daughter;fontSource=https%3A%2F%2Ffonts.googleapis.com%2Fcss%3Ffamily%3DArchitects%2BDaughter;fontSize=16;" edge="1" parent="wk5tLhPY4vMojB6MMI5w-2">
                    <mxGeometry width="50" height="50" relative="1" as="geometry">
                        <mxPoint x="40" y="490" as="sourcePoint"/>
                        <mxPoint x="360" y="490" as="targetPoint"/>
                    </mxGeometry>
                </mxCell>
                <mxCell id="wk5tLhPY4vMojB6MMI5w-26" value="" style="endArrow=none;html=1;sketch=1;hachureGap=4;jiggle=2;curveFitting=1;strokeColor=default;fontFamily=Architects Daughter;fontSource=https%3A%2F%2Ffonts.googleapis.com%2Fcss%3Ffamily%3DArchitects%2BDaughter;fontSize=16;" edge="1" parent="wk5tLhPY4vMojB6MMI5w-2">
                    <mxGeometry width="50" height="50" relative="1" as="geometry">
                        <mxPoint x="40" y="410" as="sourcePoint"/>
                        <mxPoint x="360" y="410" as="targetPoint"/>
                    </mxGeometry>
                </mxCell>
                <mxCell id="wk5tLhPY4vMojB6MMI5w-30" value="&lt;font color=&quot;#c9c9c9&quot;&gt;&lt;span style=&quot;font-size: 30px;&quot;&gt;4. Chi tiết ngành&lt;/span&gt;&lt;/font&gt;" style="text;html=1;strokeColor=none;fillColor=none;align=center;verticalAlign=middle;whiteSpace=wrap;rounded=0;sketch=1;hachureGap=4;jiggle=2;curveFitting=1;fontFamily=Architects Daughter;fontSource=https%3A%2F%2Ffonts.googleapis.com%2Fcss%3Ffamily%3DArchitects%2BDaughter;fontSize=35;" vertex="1" parent="wk5tLhPY4vMojB6MMI5w-1">
                    <mxGeometry x="485" y="30" width="350" height="30" as="geometry"/>
                </mxCell>
            </root>
        </mxGraphModel>
    </diagram>
</mxfile>